<svg width="41" height="41" viewBox="0 0 41 41" fill="none" xmlns="http://www.w3.org/2000/svg">
<g clip-path="url(#clip0_2046_3894)">
<path d="M30.9922 26.4C30.4722 26.6122 30.0419 26.9981 29.7745 27.4919C29.5072 27.9858 29.4193 28.5571 29.526 29.1085C29.6326 29.6598 29.9271 30.1572 30.3593 30.5158C30.7915 30.8743 31.3347 31.072 31.8963 31.075C32.4578 31.078 33.0031 30.8862 33.4391 30.5323C33.8752 30.1784 34.175 29.6843 34.2876 29.1341C34.4001 28.5839 34.3184 28.0117 34.0564 27.515C33.7944 27.0183 33.3683 26.6278 32.8506 26.41C32.5569 26.2855 32.2414 26.2205 31.9224 26.2188C31.6034 26.2171 31.2872 26.2787 30.9922 26.4ZM33.289 28.0853C33.4195 28.4055 33.4349 28.761 33.3326 29.0912C33.2303 29.4215 33.0166 29.706 32.7279 29.8964C32.4393 30.0867 32.0936 30.171 31.7497 30.135C31.4059 30.099 31.0852 29.9448 30.8422 29.6988C30.5993 29.4527 30.4493 29.1301 30.4176 28.7858C30.386 28.4415 30.4748 28.0969 30.6688 27.8107C30.8628 27.5246 31.15 27.3145 31.4815 27.2164C31.8131 27.1183 32.1684 27.1383 32.4869 27.2728C32.6679 27.3483 32.8321 27.459 32.9701 27.5985C33.108 27.7379 33.2168 27.9034 33.2903 28.0853H33.289Z" fill="#1C1C1C"/>
<path d="M5.62977 19.9919C5.51554 19.5638 5.2769 19.1791 4.94404 18.8866C4.61118 18.5941 4.19905 18.4068 3.75976 18.3486C3.32048 18.2903 2.87379 18.3636 2.47617 18.5592C2.07856 18.7548 1.74789 19.064 1.52599 19.4475C1.30409 19.8311 1.20092 20.2719 1.22953 20.7141C1.25814 21.1563 1.41725 21.58 1.68674 21.9318C1.95622 22.2836 2.32397 22.5475 2.74348 22.6903C3.16299 22.833 3.61541 22.8482 4.04352 22.7338C4.61721 22.5801 5.10649 22.2051 5.4039 21.691C5.70131 21.1769 5.78254 20.5658 5.62977 19.9919ZM3.80164 21.8281C3.55273 21.8947 3.28968 21.8859 3.04575 21.8029C2.80183 21.7199 2.588 21.5665 2.43131 21.3619C2.27462 21.1574 2.18211 20.911 2.16548 20.6539C2.14885 20.3968 2.20885 20.1405 2.33789 19.9175C2.46693 19.6945 2.65921 19.5148 2.89041 19.4011C3.12161 19.2873 3.38134 19.2448 3.63675 19.2787C3.89216 19.3126 4.13177 19.4215 4.32527 19.5916C4.51878 19.7618 4.65748 19.9854 4.72383 20.2344C4.7692 20.3996 4.78127 20.5722 4.75935 20.7421C4.73743 20.912 4.68196 21.0759 4.59615 21.2242C4.51034 21.3725 4.39592 21.5022 4.25952 21.6059C4.12313 21.7096 3.96749 21.7851 3.80164 21.8281Z" fill="#1C1C1C"/>
<path d="M38.6028 20.9484C38.4562 20.5886 38.1893 20.2907 37.8477 20.1056C37.5061 19.9205 37.1108 19.8596 36.7293 19.9333C36.3478 20.0069 36.0037 20.2106 35.7555 20.5095C35.5073 20.8085 35.3705 21.1843 35.3683 21.5728C35.3661 21.9613 35.4988 22.3386 35.7436 22.6403C35.9884 22.942 36.3303 23.1495 36.7109 23.2275C37.0916 23.3054 37.4875 23.2489 37.8311 23.0676C38.1748 22.8863 38.445 22.5915 38.5956 22.2334C38.6817 22.0303 38.7267 21.8122 38.7279 21.5916C38.7292 21.371 38.6867 21.1524 38.6028 20.9484ZM37.7313 21.8696C37.6646 22.0276 37.5453 22.1576 37.3936 22.2375C37.2418 22.3174 37.0671 22.3422 36.8991 22.3077C36.7312 22.2732 36.5804 22.1815 36.4724 22.0483C36.3644 21.9151 36.306 21.7486 36.307 21.5771C36.3081 21.4056 36.3685 21.2398 36.4781 21.1079C36.5877 20.976 36.7396 20.8862 36.9079 20.8537C37.0763 20.8213 37.2507 20.8482 37.4015 20.9299C37.5522 21.0116 37.67 21.143 37.7347 21.3018C37.7718 21.392 37.7906 21.4887 37.7901 21.5862C37.7895 21.6838 37.7695 21.7799 37.7313 21.8696Z" fill="#1C1C1C"/>
<path d="M3.90266 15.531C4.2534 15.5308 4.5953 15.4209 4.88036 15.2165C5.16542 15.0122 5.37933 14.7237 5.49206 14.3916C5.60479 14.0594 5.61068 13.7003 5.50891 13.3647C5.40713 13.029 5.2028 12.7337 4.9246 12.5201C4.6464 12.3065 4.30829 12.1854 3.95774 12.1738C3.6072 12.1621 3.26181 12.2606 2.97006 12.4553C2.67832 12.65 2.45487 12.9311 2.33108 13.2593C2.20729 13.5875 2.18937 13.9462 2.27985 14.285C2.37548 14.6424 2.58635 14.9582 2.87977 15.1834C3.17318 15.4087 3.53274 15.5309 3.90266 15.531ZM3.71079 13.1338C3.80489 13.1085 3.90305 13.1021 3.99964 13.1148C4.09624 13.1276 4.18937 13.1593 4.2737 13.2081C4.35803 13.2569 4.4319 13.3218 4.49109 13.3992C4.55027 13.4766 4.5936 13.5649 4.6186 13.6591C4.6564 13.8008 4.65134 13.9505 4.60405 14.0893C4.55676 14.2282 4.46937 14.3499 4.35292 14.439C4.23647 14.5282 4.0962 14.5808 3.94985 14.5903C3.80349 14.5997 3.65762 14.5655 3.53068 14.4921C3.40374 14.4186 3.30144 14.3092 3.2367 14.1776C3.17195 14.046 3.14769 13.8982 3.16697 13.7528C3.18624 13.6074 3.2482 13.471 3.345 13.3608C3.44179 13.2506 3.56909 13.1716 3.71079 13.1338Z" fill="#1C1C1C"/>
<path d="M7.52175 31.3033C7.73734 31.4285 7.98214 31.4946 8.23144 31.4949C8.44946 31.4947 8.66452 31.4445 8.86005 31.3481C9.05559 31.2517 9.22637 31.1116 9.35922 30.9388C9.49207 30.7659 9.58345 30.5648 9.62632 30.3511C9.66918 30.1373 9.66238 29.9166 9.60644 29.7058C9.54608 29.48 9.43096 29.2726 9.27128 29.1018C9.1116 28.9311 8.91228 28.8024 8.69098 28.7271C8.46969 28.6518 8.23323 28.6323 8.00257 28.6702C7.77191 28.7081 7.55415 28.8023 7.36859 28.9444C7.18302 29.0866 7.03538 29.2723 6.93872 29.4852C6.84207 29.698 6.7994 29.9314 6.81449 30.1647C6.82957 30.3979 6.90195 30.6239 7.02521 30.8225C7.14846 31.0211 7.3188 31.1863 7.52113 31.3033H7.52175ZM7.81425 29.8299C7.84608 29.7748 7.88847 29.7266 7.93898 29.6879C7.9895 29.6493 8.04715 29.6209 8.10863 29.6046C8.14944 29.5939 8.19144 29.5884 8.23363 29.5884C8.34007 29.5887 8.44342 29.6241 8.52767 29.6892C8.61193 29.7542 8.67238 29.8452 8.69966 29.9481C8.72695 30.051 8.71953 30.16 8.67858 30.2582C8.63762 30.3565 8.56541 30.4385 8.47312 30.4915C8.38084 30.5445 8.27364 30.5657 8.16813 30.5516C8.06263 30.5375 7.96471 30.4891 7.88955 30.4137C7.81439 30.3383 7.76618 30.2403 7.7524 30.1347C7.73861 30.0292 7.76003 29.9221 7.81331 29.8299H7.81425Z" fill="#1C1C1C"/>
<path d="M36.0324 12.8607C36.4331 13.0292 36.8843 13.0316 37.2868 12.8675C37.6894 12.7035 38.0103 12.3863 38.179 11.9857C38.3047 11.6869 38.339 11.3575 38.2776 11.0393C38.2161 10.721 38.0617 10.428 37.8337 10.1975C37.6058 9.96703 37.3146 9.80929 36.997 9.74426C36.6795 9.67923 36.3497 9.70983 36.0495 9.83219C35.7493 9.95456 35.4922 10.1632 35.3106 10.4317C35.1289 10.7002 35.031 11.0166 35.0292 11.3407C35.0274 11.6649 35.1217 11.9823 35.3003 12.2529C35.4789 12.5234 35.7336 12.7349 36.0324 12.8607ZM36.0215 11.0776C36.057 10.9925 36.109 10.9154 36.1745 10.8505C36.24 10.7857 36.3177 10.7344 36.4031 10.6998C36.4873 10.6655 36.5774 10.6477 36.6684 10.6476C36.8193 10.6475 36.9662 10.6959 37.0874 10.7858C37.2086 10.8757 37.2977 11.0022 37.3414 11.1467C37.3851 11.2911 37.3811 11.4458 37.3301 11.5878C37.279 11.7298 37.1836 11.8516 37.0579 11.9351C36.9322 12.0187 36.783 12.0595 36.6323 12.0516C36.4816 12.0437 36.3374 11.9875 36.2211 11.8913C36.1049 11.7951 36.0227 11.664 35.9867 11.5175C35.9508 11.3709 35.963 11.2167 36.0215 11.0776Z" fill="#1C1C1C"/>
<path d="M20.1962 22.238C20.6312 22.2236 21.046 22.0509 21.3627 21.7524C21.4108 21.7127 21.4504 21.6638 21.4793 21.6085C21.5083 21.5533 21.5259 21.4928 21.5311 21.4307C21.5364 21.3686 21.5292 21.306 21.51 21.2467C21.4908 21.1874 21.46 21.1325 21.4193 21.0853C21.3786 21.038 21.3289 20.9994 21.2731 20.9716C21.2173 20.9438 21.1565 20.9274 21.0943 20.9233C21.0321 20.9193 20.9697 20.9278 20.9108 20.9481C20.8518 20.9685 20.7976 21.0005 20.7512 21.0421C20.683 21.1229 20.598 21.1878 20.5021 21.2323C20.4063 21.2769 20.3019 21.2999 20.1962 21.2999C20.0905 21.2999 19.986 21.2769 19.8902 21.2323C19.7943 21.1878 19.7093 21.1229 19.6412 21.0421C19.5947 21.0005 19.5405 20.9685 19.4816 20.9481C19.4226 20.9278 19.3602 20.9193 19.298 20.9233C19.2358 20.9274 19.175 20.9438 19.1192 20.9716C19.0634 20.9994 19.0137 21.038 18.973 21.0853C18.9323 21.1325 18.9015 21.1874 18.8823 21.2467C18.8631 21.306 18.8559 21.3686 18.8612 21.4307C18.8664 21.4928 18.8841 21.5533 18.913 21.6085C18.9419 21.6638 18.9815 21.7127 19.0296 21.7524C19.3464 22.0509 19.7611 22.2236 20.1962 22.238Z" fill="#1C1C1C"/>
<path d="M22.4491 23.8335H22.4435C22.096 23.9034 21.7391 23.9127 21.3885 23.861C21.301 23.8482 21.2157 23.8313 21.1135 23.8116C20.9676 23.7777 20.8167 23.7704 20.6682 23.79C20.5128 23.8174 20.3651 23.8778 20.2351 23.9672C20.2234 23.9741 20.2101 23.9778 20.1966 23.9778C20.1831 23.9778 20.1698 23.9741 20.1582 23.9672C20.0282 23.8778 19.8805 23.8174 19.7251 23.79C19.5765 23.7704 19.4257 23.7777 19.2797 23.8116C19.1779 23.8313 19.0922 23.8482 19.0047 23.861C18.6542 23.9127 18.2974 23.9034 17.9501 23.8335H17.9441C17.8626 23.8174 17.778 23.8321 17.7067 23.8748C17.6354 23.9174 17.5824 23.9849 17.5579 24.0643C17.5334 24.1436 17.5392 24.2293 17.5741 24.3047C17.609 24.38 17.6706 24.4398 17.7469 24.4725C18.1653 24.6544 18.6185 24.7421 19.0744 24.7294C19.1876 24.7263 19.3019 24.7169 19.3991 24.7094C19.4904 24.7013 19.5294 24.7163 19.6651 24.796C19.8149 24.8871 19.9863 24.9368 20.1616 24.9397H20.2316C20.407 24.9368 20.5784 24.8871 20.7282 24.796C20.8638 24.7163 20.9029 24.7022 20.9941 24.7094C21.0913 24.7169 21.2057 24.7263 21.3188 24.7294C21.7748 24.7421 22.228 24.6544 22.6463 24.4725C22.7227 24.4398 22.7843 24.38 22.8192 24.3047C22.8541 24.2293 22.8598 24.1436 22.8353 24.0643C22.8108 23.9849 22.7578 23.9174 22.6865 23.8748C22.6152 23.8321 22.5306 23.8174 22.4491 23.8335Z" fill="#1C1C1C"/>
<path d="M20.4811 25.47C20.3934 25.5167 20.2955 25.541 20.1961 25.541C20.0967 25.541 19.9989 25.5167 19.9111 25.47C19.8002 25.4229 19.6754 25.4204 19.5627 25.4628C19.4499 25.5053 19.3578 25.5896 19.3056 25.6981C19.2533 25.8067 19.2448 25.9312 19.2819 26.0459C19.3191 26.1605 19.3989 26.2564 19.5049 26.3138C19.7196 26.4213 19.9563 26.4772 20.1964 26.4772C20.4365 26.4772 20.6733 26.4213 20.888 26.3138C20.9464 26.289 20.9991 26.2526 21.043 26.2069C21.0869 26.1611 21.1211 26.1069 21.1434 26.0476C21.1658 25.9882 21.1759 25.9249 21.1731 25.8616C21.1703 25.7982 21.1546 25.7361 21.1271 25.679C21.0996 25.6218 21.0608 25.5709 21.013 25.5292C20.9652 25.4875 20.9095 25.4559 20.8492 25.4364C20.7888 25.4168 20.7252 25.4097 20.662 25.4155C20.5988 25.4213 20.5375 25.4399 20.4817 25.47H20.4811Z" fill="#1C1C1C"/>
<path d="M25.6989 18.6668L25.818 18.5943C25.8555 18.5706 25.873 18.5553 25.9018 18.5347C25.9937 18.4733 26.0913 18.421 26.1933 18.3784C26.2846 18.3334 26.3868 18.3152 26.488 18.3259L26.5505 18.3328C26.5901 18.337 26.6301 18.3304 26.6662 18.3137C26.7024 18.2969 26.7333 18.2707 26.7557 18.2379C26.7782 18.205 26.7913 18.1666 26.7937 18.1269C26.796 18.0871 26.7876 18.0475 26.7693 18.0122C26.7049 17.9063 26.6156 17.8178 26.5092 17.7545C26.4027 17.6912 26.2823 17.655 26.1586 17.649C25.9375 17.6387 25.717 17.6795 25.5143 17.7684L25.3821 17.825L25.2849 17.8697C25.218 17.8968 25.1527 17.9262 25.083 17.9497C24.9486 18.0047 24.8086 18.05 24.6699 18.0937C24.3994 18.1796 24.1207 18.2367 23.8383 18.264C23.586 18.2936 23.3302 18.2713 23.0868 18.1987L23.0411 18.1837C22.9672 18.1597 22.8873 18.1622 22.8149 18.1906C22.7426 18.219 22.6824 18.2717 22.6446 18.3396C22.6068 18.4075 22.5938 18.4864 22.6077 18.5629C22.6217 18.6393 22.6618 18.7085 22.7211 18.7587C23.0422 19.0141 23.4399 19.1539 23.8502 19.1556C24.2228 19.1647 24.5943 19.1113 24.9493 18.9978C25.1226 18.943 25.292 18.8763 25.4561 18.7981C25.5399 18.7584 25.6186 18.7115 25.6989 18.6668Z" fill="#1C1C1C"/>
<path d="M17.7731 18.3985C17.7456 18.314 17.6856 18.2439 17.6064 18.2036C17.5272 18.1633 17.4352 18.1561 17.3506 18.1835L17.3053 18.1982C17.0623 18.2706 16.8072 18.2928 16.5553 18.2635C16.2729 18.2362 15.9942 18.1791 15.7238 18.0932C15.585 18.0495 15.445 18.0042 15.3106 17.9492C15.2409 17.9257 15.1756 17.8964 15.1088 17.8692L15.0091 17.8245L14.8769 17.7679C14.6741 17.679 14.4536 17.6382 14.2325 17.6485C14.1088 17.6545 13.9884 17.6907 13.882 17.754C13.7755 17.8174 13.6862 17.9058 13.6219 18.0117C13.6017 18.05 13.5935 18.0936 13.5984 18.1367C13.605 18.1947 13.6343 18.2479 13.6799 18.2844C13.7255 18.3209 13.7838 18.3378 13.8419 18.3314L13.9044 18.3245C14.0056 18.3138 14.1078 18.332 14.1991 18.377C14.301 18.4195 14.3985 18.4718 14.4903 18.5332C14.5194 18.5539 14.5369 18.5692 14.5744 18.5929L14.6934 18.6654C14.7738 18.7101 14.8534 18.7567 14.9356 18.7957C15.0998 18.8739 15.2691 18.9406 15.4425 18.9954C15.7975 19.1089 16.169 19.1623 16.5416 19.1532C16.9518 19.1515 17.3495 19.0117 17.6706 18.7563C17.721 18.7134 17.7577 18.6566 17.7759 18.5929C17.7941 18.5293 17.7932 18.4616 17.7731 18.3985Z" fill="#1C1C1C"/>
<path d="M32.7725 36.123C31.7887 35.2121 29.9912 34.623 28.255 34.0509C27.3303 33.7749 26.4256 33.4357 25.5475 33.0356C23.7706 32.134 23.6725 30.4818 23.6025 29.2756C23.6025 29.2462 23.599 29.2215 23.5972 29.1931C24.4755 28.6647 25.2855 28.0304 26.009 27.3044C27.0239 26.2671 27.7823 25.007 28.2237 23.6247C29.7572 23.5756 31.3047 21.9391 31.5478 20.466C31.5751 20.3054 31.592 20.1431 31.5984 19.9803C31.8766 19.8757 32.1125 19.6822 32.2693 19.4297C32.8284 18.5235 32.5193 17.4338 32.1931 16.2801L32.1731 16.2104C32.8518 13.7529 32.599 8.55106 29.8918 4.80422C27.9653 2.13955 23.4031 -0.622301 20.1965 0.740813C16.9897 -0.622614 12.4278 2.13924 10.5012 4.80328C7.79278 8.55138 7.53997 13.7532 8.21997 16.2094L8.19997 16.2791C7.87341 17.4329 7.56466 18.5225 8.12341 19.4288C8.28044 19.6811 8.51642 19.8744 8.79466 19.9788C8.80091 20.1409 8.81772 20.3023 8.84497 20.4622C9.08841 21.9378 10.6359 23.5747 12.1693 23.6238C12.6107 25.0064 13.3691 26.2668 14.384 27.3044C15.108 28.0304 15.9185 28.6647 16.7972 29.1931C16.7953 29.2215 16.7934 29.2462 16.7918 29.2756C16.7206 30.4818 16.6234 32.134 14.8468 33.0356C13.9687 33.4357 13.0641 33.7749 12.1393 34.0509C10.4018 34.6215 8.60559 35.2121 7.62184 36.123C6.64551 37.0445 5.88976 38.1744 5.41091 39.4286C5.3642 39.5436 5.36503 39.6725 5.4132 39.7869C5.46137 39.9013 5.55296 39.9919 5.66787 40.0389C5.78278 40.0859 5.91163 40.0853 6.02614 40.0374C6.14066 39.9895 6.23149 39.8981 6.27872 39.7833C6.707 38.6562 7.38389 37.6402 8.25903 36.8108C9.09247 36.0387 10.8668 35.4558 12.4318 34.9415C13.4021 34.6518 14.3508 34.2944 15.2709 33.8718C17.3425 32.8206 17.6175 30.9449 17.7062 29.6612C18.3298 29.9419 18.9808 30.1572 19.6487 30.3037C20.01 30.3835 20.3843 30.3835 20.7456 30.3037C21.4139 30.157 22.0653 29.9416 22.6893 29.6609C22.7781 30.9446 23.0531 32.8202 25.1247 33.8715C26.0448 34.2941 26.9935 34.6515 27.9637 34.9412C29.5287 35.4555 31.3031 36.0383 32.1365 36.8105C33.0117 37.6399 33.6886 38.6559 34.1168 39.783C34.1641 39.8978 34.2549 39.9892 34.3694 40.0371C34.4839 40.085 34.6128 40.0855 34.7277 40.0386C34.8426 39.9916 34.9342 39.901 34.9824 39.7866C35.0305 39.6722 35.0314 39.5433 34.9847 39.4283C34.5054 38.1741 33.7492 37.0443 32.7725 36.123ZM29.625 19.29C29.6028 19.2838 29.5801 19.2793 29.5572 19.2766C29.3951 19.2615 29.2317 19.2743 29.074 19.3144C29.0853 19.1582 29.0943 19.0019 29.1025 18.8425C29.2843 19.0013 29.4585 19.1505 29.625 19.29ZM28.5312 22.6431C28.7133 21.9526 28.852 21.2513 28.9465 20.5435C29.1393 20.1807 29.384 20.1997 29.4662 20.2082C29.5899 20.2201 29.7133 20.1824 29.8092 20.1034C29.9051 20.0244 29.9658 19.9106 29.9778 19.7869C29.9855 19.7028 29.9701 19.6182 29.9334 19.5422C30.0362 19.6244 30.1393 19.7075 30.2347 19.7803C30.3623 19.8778 30.5058 19.9528 30.6587 20.0019C30.6527 20.1054 30.6411 20.2084 30.624 20.3107C30.4681 21.2603 29.4878 22.3966 28.5303 22.6416L28.5312 22.6431ZM29.1322 5.35265C31.269 8.30982 31.8084 12.4723 31.4565 15.0282C31.268 14.7677 31.0571 14.5242 30.8262 14.3004C30.7341 14.2218 30.6152 14.1819 30.4944 14.1891C30.3736 14.1962 30.2602 14.2498 30.178 14.3386C30.0958 14.4275 30.0511 14.5447 30.0533 14.6657C30.0556 14.7867 30.1045 14.9022 30.19 14.9879C30.6134 15.4012 30.9717 15.8764 31.2525 16.3973C31.5078 16.9813 31.815 18.3816 31.4712 18.9372C31.433 18.997 31.3806 19.0463 31.3187 19.0811C31.2569 19.1158 31.1874 19.1347 31.1165 19.1363C31.0044 19.136 30.8952 19.1009 30.804 19.0357C30.4603 18.7722 29.8625 18.2872 28.98 17.4732C28.114 16.6776 27.1337 15.7116 26.0659 14.6023C24.4968 12.9773 22.7253 11.0292 20.8003 8.81606C21.6906 7.51076 21.0481 6.14952 20.5209 5.03859C20.2648 4.58674 20.0886 4.09411 20 3.58235C19.9687 2.95986 20.3309 2.0533 20.5397 1.61362C23.2428 0.44394 27.4687 3.05236 29.1322 5.35265ZM9.13997 16.3976C9.42057 15.8767 9.77884 15.4016 10.2025 14.9885C10.2879 14.9028 10.3369 14.7873 10.3391 14.6663C10.3413 14.5453 10.2967 14.4281 10.2145 14.3393C10.1323 14.2504 10.0189 14.1968 9.89804 14.1897C9.77721 14.1826 9.65831 14.2225 9.56622 14.301C9.33533 14.5248 9.12442 14.7683 8.93591 15.0288C8.58403 12.4729 9.12341 8.31013 11.2603 5.35328C12.6412 3.44423 15.7868 1.32143 18.3606 1.32143C18.7689 1.31765 19.1752 1.37819 19.5647 1.50081C19.2533 2.16819 19.083 2.89269 19.0647 3.62892C19.1515 4.26567 19.3586 4.88012 19.675 5.43953C20.289 6.73295 20.6325 7.64607 19.8468 8.51981L19.8409 8.52606C17.819 10.8614 15.9625 12.9054 14.3243 14.6026C13.2572 15.7113 12.2768 16.6772 11.41 17.4738C10.5284 18.2879 9.93185 18.7729 9.58528 19.0363C9.49847 19.102 9.39229 19.1371 9.28341 19.136C9.21112 19.1353 9.14012 19.1168 9.07675 19.082C9.01338 19.0472 8.95963 18.9973 8.92028 18.9366C8.57778 18.3838 8.88403 16.9813 9.13997 16.3976ZM11.2903 18.841C11.2984 18.9994 11.3075 19.1569 11.3187 19.3129C11.161 19.2728 10.9976 19.26 10.8356 19.275C10.8127 19.2777 10.79 19.2822 10.7678 19.2885C10.9347 19.1497 11.1088 19.0006 11.2903 18.841ZM9.76778 20.3078C9.7509 20.2066 9.73942 20.1044 9.73341 20.0019C9.88568 19.9536 10.0286 19.8796 10.1559 19.7832C10.2518 19.7097 10.3556 19.6269 10.4587 19.5438C10.4226 19.6186 10.4071 19.7017 10.4139 19.7844C10.4207 19.8672 10.4495 19.9467 10.4973 20.0146C10.5451 20.0825 10.6102 20.1364 10.6858 20.1707C10.7615 20.205 10.8449 20.2185 10.9275 20.2097C11.009 20.201 11.254 20.1822 11.4468 20.545C11.5421 21.2521 11.6811 21.9526 11.8631 22.6425C10.9059 22.3947 9.92466 21.2588 9.76778 20.3078ZM20.5403 29.3887C20.3129 29.439 20.0773 29.439 19.85 29.3887C17.6028 28.8925 16.2075 27.7706 15.0347 26.6322C14.0636 25.62 13.351 24.3885 12.9575 23.0422C12.9527 23.0237 12.9466 23.0055 12.9393 22.9878C12.6685 22.1194 12.4749 21.2288 12.3606 20.3263C12.2631 19.5604 12.2094 18.7896 12.2 18.0176C13.0243 17.2535 13.9418 16.3485 14.9356 15.3179C15.8024 15.3169 16.6686 15.3678 17.5293 15.4701L17.5453 15.4732C17.6342 15.49 17.7261 15.4737 17.8039 15.4275C17.8817 15.3813 17.9399 15.3083 17.9677 15.2223C17.9955 15.1362 17.991 15.0429 17.9549 14.9599C17.9188 14.877 17.8538 14.81 17.7718 14.7716C17.3589 14.5873 16.9184 14.4724 16.4681 14.4316C16.2501 14.4095 16.031 14.3996 15.8118 14.402C17.1537 12.9817 18.6243 11.3542 20.1972 9.54762C21.7709 11.3542 23.2412 12.9817 24.5825 14.402C24.3633 14.3997 24.1443 14.4096 23.9262 14.4316C23.4759 14.4724 23.0354 14.5873 22.6225 14.7716C22.5405 14.81 22.4753 14.877 22.4392 14.96C22.4031 15.043 22.3986 15.1364 22.4264 15.2225C22.4543 15.3086 22.5126 15.3816 22.5905 15.4278C22.6684 15.474 22.7604 15.4901 22.8493 15.4732L22.865 15.4701C23.7258 15.3678 24.5919 15.3171 25.4587 15.3182C26.4528 16.3494 27.3706 17.2557 28.194 18.0176C28.1846 18.7894 28.131 19.56 28.0334 20.3257C27.9205 21.2148 27.7306 22.0925 27.4659 22.9488C27.4518 22.9808 27.4413 23.0144 27.4347 23.0488C27.0411 24.3926 26.3294 25.6217 25.36 26.6322C24.1847 27.7703 22.7903 28.8922 20.5403 29.3887Z" fill="#1C1C1C"/>
<path d="M10.8805 11.3775C10.9496 11.3776 11.0179 11.3624 11.0805 11.333C11.1431 11.3036 11.1983 11.2607 11.2424 11.2075C11.2811 11.1606 15.1527 6.52001 18.1949 6.52001C18.3192 6.52001 18.4384 6.47063 18.5264 6.38272C18.6143 6.29481 18.6636 6.17559 18.6636 6.05127C18.6636 5.92695 18.6143 5.80772 18.5264 5.71981C18.4384 5.63191 18.3192 5.58252 18.1949 5.58252C14.7161 5.58252 10.6893 10.4065 10.5196 10.6115C10.4634 10.6801 10.4278 10.7632 10.4169 10.8511C10.406 10.9391 10.4203 11.0284 10.4581 11.1085C10.4958 11.1887 10.5556 11.2566 10.6304 11.3042C10.7051 11.3518 10.7919 11.3772 10.8805 11.3775Z" fill="#1C1C1C"/>
<path d="M22.1962 6.51865C25.2343 6.51865 29.1099 11.1608 29.1487 11.2061C29.1879 11.2536 29.2361 11.2928 29.2905 11.3217C29.3449 11.3505 29.4045 11.3683 29.4658 11.3742C29.5271 11.38 29.5889 11.3737 29.6478 11.3556C29.7066 11.3375 29.7614 11.308 29.8088 11.2688C29.8563 11.2295 29.8956 11.1813 29.9244 11.1269C29.9532 11.0725 29.9711 11.013 29.9769 10.9517C29.9827 10.8904 29.9764 10.8285 29.9583 10.7697C29.9402 10.7108 29.9107 10.6561 29.8715 10.6086C29.7018 10.4036 25.6749 5.57959 22.1962 5.57959C22.0718 5.57959 21.9526 5.62898 21.8647 5.71688C21.7768 5.80479 21.7274 5.92402 21.7274 6.04834C21.7274 6.17266 21.7768 6.29188 21.8647 6.37979C21.9526 6.4677 22.0718 6.51708 22.1962 6.51708V6.51865Z" fill="#1C1C1C"/>
</g>
<defs>
<clipPath id="clip0_2046_3894">
<rect width="40" height="39.9997" fill="white" transform="translate(0.196289 0.196289)"/>
</clipPath>
</defs>
</svg>
