<svg width="43" height="44" viewBox="0 0 43 44" fill="none" xmlns="http://www.w3.org/2000/svg">
<path d="M38.32 24.7547C38.1809 24.409 37.9747 24.0944 37.7132 23.8289C37.4517 23.5635 37.1402 23.3525 36.7967 23.2083L24.156 17.8602L25.2399 6.58822C25.2417 6.56942 25.2423 6.55071 25.2423 6.53201V4.23746C25.2414 3.43303 24.9215 2.6618 24.3527 2.09296C23.7839 1.52411 23.0127 1.2041 22.2082 1.20312H7.50504C6.70056 1.20404 5.9293 1.52402 5.36044 2.09287C4.79159 2.66172 4.47161 3.43298 4.4707 4.23746V6.53201C4.4707 6.55055 4.47129 6.56909 4.47305 6.58763L6.93614 32.4542V39.4667C6.9371 40.3133 7.27385 41.125 7.87252 41.7237C8.47119 42.3224 9.28289 42.6592 10.1295 42.6601H33.7393C34.6205 42.6591 35.4654 42.3086 36.0885 41.6854C36.7116 41.0623 37.0621 40.2174 37.0631 39.3362V29.8572L38.3036 26.9254C38.4497 26.5826 38.5264 26.2143 38.5292 25.8417C38.532 25.4691 38.4609 25.0996 38.32 24.7547ZM21.5782 37.6872H18.5001V36.8931C18.4997 36.4755 18.3336 36.0752 18.0384 35.78C17.7431 35.4847 17.3428 35.3186 16.9253 35.3182H12.788C12.3705 35.3187 11.9702 35.4848 11.675 35.78C11.3798 36.0752 11.2137 36.4755 11.2132 36.8931V37.6872H8.11068V33.0142H21.5782V37.6872ZM17.3256 37.6872H12.3878V36.8931C12.3879 36.7869 12.4301 36.6852 12.5051 36.6101C12.5802 36.5351 12.6819 36.4929 12.788 36.4927H16.9253C17.0314 36.4929 17.1331 36.5351 17.2082 36.6101C17.2832 36.6852 17.3255 36.7869 17.3256 36.8931V37.6872ZM23.4813 24.8779L33.581 29.1508H23.0704L23.4813 24.8779ZM7.50504 2.37766H22.2082C22.7013 2.37822 23.174 2.57434 23.5227 2.923C23.8714 3.27166 24.0675 3.74438 24.068 4.23746V5.94474H5.64524V4.23746C5.6458 3.74438 5.84192 3.27166 6.19058 2.923C6.53924 2.57434 7.01196 2.37822 7.50504 2.37766ZM24.0085 7.11927L21.6319 31.8397H8.05741L5.7038 7.11927H24.0085ZM10.1295 41.4856C9.59429 41.485 9.08113 41.2721 8.70265 40.8936C8.32417 40.5151 8.11128 40.0019 8.11068 39.4667V38.8618H21.5782V39.4667C21.5776 40.0019 21.3647 40.5151 20.9862 40.8936C20.6077 41.2721 20.0945 41.485 19.5592 41.4856H10.1295ZM35.8886 39.3362C35.888 39.906 35.6613 40.4524 35.2584 40.8553C34.8554 41.2583 34.3091 41.4849 33.7393 41.4856H22.0314C22.4985 40.9165 22.7535 40.2029 22.7529 39.4667V32.4547L22.9576 30.3253H35.8886V39.3362ZM37.222 26.4677L36.164 28.9684L23.5991 23.6524L24.0382 19.0857L36.339 24.29C36.54 24.375 36.7223 24.4987 36.8755 24.6541C37.0287 24.8096 37.1497 24.9937 37.2317 25.1959C37.3137 25.3981 37.3551 25.6145 37.3534 25.8328C37.3518 26.051 37.3071 26.2667 37.222 26.4677ZM14.8583 23.5236C15.6696 23.5236 16.4626 23.2831 17.1371 22.8324C17.8117 22.3817 18.3374 21.7411 18.6478 20.9916C18.9583 20.2421 19.0395 19.4173 18.8812 18.6217C18.723 17.826 18.3323 17.0952 17.7587 16.5215C17.185 15.9479 16.4542 15.5572 15.6585 15.399C14.8629 15.2407 14.0381 15.3219 13.2887 15.6324C12.5392 15.9428 11.8986 16.4686 11.4478 17.1431C10.9971 17.8176 10.7566 18.6106 10.7566 19.4219C10.7578 20.5094 11.1903 21.552 11.9593 22.3209C12.7283 23.0899 13.7708 23.5224 14.8583 23.5236ZM14.8583 16.4948C15.4373 16.4948 16.0032 16.6665 16.4846 16.9881C16.966 17.3098 17.3412 17.7669 17.5627 18.3018C17.7843 18.8367 17.8422 19.4253 17.7293 19.9931C17.6163 20.5609 17.3375 21.0825 16.9281 21.4918C16.5187 21.9012 15.9972 22.18 15.4293 22.2929C14.8615 22.4059 14.2729 22.3479 13.7381 22.1263C13.2032 21.9048 12.746 21.5296 12.4244 21.0482C12.1028 20.5668 11.9311 20.0008 11.9311 19.4219C11.9321 18.6459 12.2409 17.902 12.7896 17.3533C13.3384 16.8047 14.0823 16.4961 14.8583 16.4952V16.4948ZM14.2711 14.1262V12.7073C14.2711 12.5516 14.3329 12.4022 14.4431 12.292C14.5532 12.1819 14.7026 12.12 14.8583 12.12C15.0141 12.12 15.1634 12.1819 15.2736 12.292C15.3837 12.4022 15.4456 12.5516 15.4456 12.7073V14.1262C15.4456 14.2819 15.3837 14.4313 15.2736 14.5414C15.1634 14.6515 15.0141 14.7134 14.8583 14.7134C14.7026 14.7134 14.5532 14.6515 14.4431 14.5414C14.3329 14.4313 14.2711 14.2819 14.2711 14.1262ZM18.1876 16.0925C18.1331 16.038 18.0898 15.9732 18.0603 15.902C18.0308 15.8307 18.0156 15.7543 18.0156 15.6772C18.0156 15.6001 18.0308 15.5237 18.0603 15.4525C18.0898 15.3812 18.1331 15.3165 18.1876 15.2619L19.1909 14.2586C19.3011 14.1485 19.4505 14.0866 19.6062 14.0866C19.762 14.0866 19.9114 14.1485 20.0215 14.2586C20.1316 14.3688 20.1935 14.5181 20.1935 14.6739C20.1935 14.8297 20.1316 14.979 20.0215 15.0892L19.0182 16.0925C18.9637 16.147 18.8989 16.1903 18.8277 16.2198C18.7564 16.2493 18.68 16.2645 18.6029 16.2645C18.5258 16.2645 18.4494 16.2493 18.3782 16.2198C18.3069 16.1903 18.2422 16.147 18.1876 16.0925ZM20.154 18.8346H21.5729C21.7287 18.8346 21.878 18.8965 21.9882 19.0066C22.0983 19.1168 22.1602 19.2661 22.1602 19.4219C22.1602 19.5776 22.0983 19.727 21.9882 19.8372C21.878 19.9473 21.7287 20.0092 21.5729 20.0092H20.154C19.9982 20.0092 19.8489 19.9473 19.7387 19.8372C19.6286 19.727 19.5667 19.5776 19.5667 19.4219C19.5667 19.2661 19.6286 19.1168 19.7387 19.0066C19.8489 18.8965 19.9982 18.8346 20.154 18.8346ZM20.0215 23.7546C20.1316 23.8647 20.1935 24.0141 20.1935 24.1699C20.1935 24.3256 20.1316 24.475 20.0215 24.5852C19.9114 24.6953 19.762 24.7572 19.6062 24.7572C19.4505 24.7572 19.3011 24.6953 19.1909 24.5852L18.1876 23.5819C18.0775 23.4717 18.0156 23.3223 18.0156 23.1666C18.0156 23.0108 18.0775 22.8614 18.1876 22.7513C18.2978 22.6412 18.4472 22.5793 18.6029 22.5793C18.7587 22.5793 18.9081 22.6412 19.0182 22.7513L20.0215 23.7546ZM15.4456 24.7176V26.1365C15.4456 26.2922 15.3837 26.4416 15.2736 26.5517C15.1634 26.6619 15.0141 26.7237 14.8583 26.7237C14.7026 26.7237 14.5532 26.6619 14.4431 26.5517C14.3329 26.4416 14.2711 26.2922 14.2711 26.1365V24.7176C14.2711 24.5619 14.3329 24.4125 14.4431 24.3024C14.5532 24.1922 14.7026 24.1304 14.8583 24.1304C15.0141 24.1304 15.1634 24.1922 15.2736 24.3024C15.3837 24.4125 15.4456 24.5619 15.4456 24.7176ZM11.5289 22.7513C11.5835 22.8058 11.6267 22.8706 11.6562 22.9418C11.6858 23.0131 11.701 23.0894 11.701 23.1666C11.701 23.2437 11.6858 23.3201 11.6562 23.3913C11.6267 23.4626 11.5835 23.5273 11.5289 23.5819L10.5256 24.5851C10.4155 24.6952 10.2661 24.7571 10.1103 24.7571C9.95457 24.7571 9.80519 24.6952 9.69505 24.5851C9.58491 24.4749 9.52303 24.3256 9.52303 24.1698C9.52303 24.014 9.58491 23.8647 9.69505 23.7545L10.6984 22.7513C10.8086 22.6412 10.9579 22.5793 11.1137 22.5793C11.2694 22.5793 11.4188 22.6412 11.5289 22.7513ZM8.14382 20.0092C7.98807 20.0092 7.83869 19.9473 7.72856 19.8372C7.61842 19.727 7.55655 19.5776 7.55655 19.4219C7.55655 19.2661 7.61842 19.1168 7.72856 19.0066C7.83869 18.8965 7.98807 18.8346 8.14382 18.8346H9.56275C9.7185 18.8346 9.86787 18.8965 9.97801 19.0066C10.0881 19.1168 10.15 19.2661 10.15 19.4219C10.15 19.5776 10.0881 19.727 9.97801 19.8372C9.86787 19.9473 9.7185 20.0092 9.56275 20.0092H8.14382ZM9.6953 15.0892C9.64077 15.0347 9.59751 14.9699 9.56799 14.8987C9.53848 14.8274 9.52329 14.751 9.52329 14.6739C9.52329 14.5968 9.53848 14.5204 9.56799 14.4492C9.59751 14.3779 9.64077 14.3132 9.6953 14.2586C9.74984 14.2041 9.81458 14.1608 9.88584 14.1313C9.95709 14.1018 10.0335 14.0866 10.1106 14.0866C10.1877 14.0866 10.2641 14.1018 10.3353 14.1313C10.4066 14.1608 10.4713 14.2041 10.5259 14.2586L11.5289 15.2619C11.5835 15.3165 11.6267 15.3812 11.6562 15.4525C11.6857 15.5237 11.7009 15.6001 11.7009 15.6772C11.7009 15.7543 11.6857 15.8307 11.6562 15.902C11.6267 15.9732 11.5835 16.038 11.5289 16.0925C11.4744 16.147 11.4096 16.1903 11.3384 16.2198C11.2671 16.2493 11.1908 16.2645 11.1136 16.2645C11.0365 16.2645 10.9601 16.2493 10.8889 16.2198C10.8176 16.1903 10.7529 16.147 10.6984 16.0925L9.6953 15.0892Z" fill="#1C1C1C"/>
</svg>
