<svg width="44" height="43" viewBox="0 0 44 43" fill="none" xmlns="http://www.w3.org/2000/svg">
<g id="FacialFoam 1" clip-path="url(#clip0_2046_5085)">
<path id="Vector" d="M33.8662 0.825169C33.7387 0.683699 33.5829 0.570574 33.4089 0.493113C33.2349 0.415652 33.0466 0.37558 32.8561 0.375488H11.0228C10.8323 0.375476 10.6439 0.415508 10.4699 0.492986C10.2959 0.570464 10.1401 0.683658 10.0126 0.825227C9.88517 0.966795 9.78889 1.13357 9.73005 1.31475C9.6712 1.49592 9.6511 1.68744 9.67104 1.87688L9.83883 3.45949C9.86877 3.74599 9.9892 4.0155 10.1827 4.22892C10.3761 4.44235 10.6325 4.5886 10.9147 4.64645L12.5591 32.1249C12.6077 32.9012 12.9229 33.6367 13.4514 34.2073C13.9799 34.7779 14.6893 35.1484 15.4595 35.2563V40.7659C15.46 41.267 15.6594 41.7475 16.0138 42.1019C16.3681 42.4563 16.8487 42.6557 17.3498 42.6562H26.5304C27.0316 42.6557 27.5121 42.4563 27.8664 42.1019C28.2208 41.7475 28.4202 41.267 28.4207 40.7659V35.2563C29.191 35.1484 29.9004 34.7778 30.4289 34.2072C30.9574 33.6366 31.2726 32.9009 31.3211 32.1246L32.9655 4.64645C33.2477 4.5886 33.5041 4.44235 33.6976 4.22892C33.891 4.0155 34.0114 3.74599 34.0414 3.45949L34.2092 1.87655C34.2288 1.68705 34.2085 1.49554 34.1494 1.31442C34.0903 1.1333 33.9938 0.966612 33.8662 0.825169ZM24.8189 3.66923L24.8266 1.38224H28.5791L28.5714 3.66923H24.8189ZM20.0674 3.66923L20.0593 1.38224H23.8179L23.8122 3.66923H20.0674ZM15.3078 3.66923L15.2998 1.38224H19.0526L19.0603 3.66923H15.3078ZM10.6721 1.77151C10.6669 1.72237 10.6721 1.6727 10.6874 1.62571C10.7027 1.57872 10.7276 1.53546 10.7607 1.49875C10.7938 1.46205 10.8342 1.4327 10.8793 1.41263C10.9245 1.39255 10.9734 1.3822 11.0228 1.38224H14.293L14.3007 3.66923H11.1892C11.1021 3.66936 11.0181 3.63717 10.9534 3.5789C10.8886 3.52062 10.8478 3.44041 10.8389 3.35378L10.6721 1.77151ZM26.5304 41.6494H17.3488C17.1146 41.6492 16.89 41.556 16.7243 41.3903C16.5587 41.2247 16.4655 41.0001 16.4652 40.7659V35.2928H27.4136V40.7665C27.4132 41.0006 27.32 41.225 27.1544 41.3905C26.9889 41.556 26.7645 41.6491 26.5304 41.6494ZM30.3157 32.0639C30.2785 32.6648 30.0138 33.2289 29.5755 33.6416C29.1371 34.0543 28.558 34.2845 27.9559 34.2854H15.9229C15.3209 34.2846 14.7418 34.0545 14.3034 33.6418C13.8651 33.2292 13.6003 32.6651 13.5631 32.0642L11.9235 4.67598H31.9554L30.3157 32.0639ZM33.0407 3.35378C33.0317 3.44041 32.9909 3.52062 32.9262 3.5789C32.8614 3.63717 32.7774 3.66936 32.6903 3.66923H29.5781L29.5858 1.38224H32.8561C32.9056 1.38192 32.9547 1.39205 33 1.41198C33.0454 1.43192 33.086 1.46119 33.1193 1.4979C33.1525 1.53461 33.1776 1.57793 33.193 1.62502C33.2084 1.67211 33.2136 1.72191 33.2085 1.77118L33.0407 3.35378Z" fill="#1C1C1C"/>
<path id="Vector_2" d="M23.4902 36.8779H20.3891C20.0549 36.8783 19.7345 37.0112 19.4982 37.2475C19.2619 37.4838 19.129 37.8042 19.1287 38.1384V39.0445C19.129 39.3786 19.2619 39.699 19.4983 39.9352C19.7346 40.1715 20.055 40.3043 20.3891 40.3046H23.4909C23.825 40.3043 24.1454 40.1715 24.3818 39.9352C24.6181 39.699 24.751 39.3786 24.7513 39.0445V38.1384C24.751 37.8041 24.618 37.4836 24.3815 37.2473C24.1451 37.0109 23.8245 36.8781 23.4902 36.8779ZM23.7439 39.0441C23.7438 39.1113 23.7171 39.1758 23.6695 39.2233C23.6219 39.2708 23.5575 39.2975 23.4902 39.2975H20.3891C20.3219 39.2975 20.2574 39.2708 20.2098 39.2233C20.1623 39.1758 20.1355 39.1113 20.1354 39.0441V38.138C20.1355 38.0708 20.1623 38.0063 20.2098 37.9587C20.2574 37.9112 20.3219 37.8844 20.3891 37.8843H23.4909C23.5582 37.8844 23.6226 37.9112 23.6702 37.9587C23.7178 38.0063 23.7445 38.0708 23.7446 38.138L23.7439 39.0441Z" fill="#1C1C1C"/>
<path id="Vector_3" d="M21.9396 13.398C21.6869 13.3973 21.4375 13.4547 21.2106 13.5658C20.9836 13.6769 20.7853 13.8386 20.6308 14.0386C19.0918 16.0168 17.2465 18.7951 17.1891 20.7975C17.1718 21.4083 17.2782 22.0163 17.502 22.5849C17.7257 23.1535 18.0622 23.6709 18.4911 24.1061C18.9394 24.567 19.4755 24.9334 20.0678 25.1836C20.66 25.4338 21.2965 25.5627 21.9394 25.5627C22.5824 25.5627 23.2188 25.4338 23.8111 25.1836C24.4033 24.9334 24.9394 24.567 25.3877 24.1061C25.8167 23.6708 26.1531 23.1534 26.3769 22.5847C26.6007 22.0161 26.7071 21.408 26.6897 20.7972C26.631 18.7951 24.7873 16.0168 23.2494 14.0386C23.0948 13.8385 22.8962 13.6767 22.6691 13.5656C22.442 13.4546 22.1924 13.3972 21.9396 13.398ZM24.6655 23.4047C24.3111 23.7691 23.8873 24.0587 23.4191 24.2565C22.9508 24.4542 22.4477 24.5561 21.9394 24.5561C21.4311 24.5561 20.928 24.4542 20.4598 24.2565C19.9915 24.0587 19.5677 23.7691 19.2133 23.4047C18.8786 23.0657 18.6159 22.6626 18.441 22.2195C18.2661 21.7765 18.1826 21.3026 18.1955 20.8264C18.2341 19.4764 19.3808 17.2853 21.4245 14.6567C21.4854 14.5783 21.5635 14.5147 21.6527 14.4711C21.742 14.4274 21.84 14.4047 21.9394 14.4047C22.0388 14.4047 22.1368 14.4274 22.2261 14.4711C22.3153 14.5147 22.3934 14.5783 22.4544 14.6567C24.4981 17.285 25.6447 19.4764 25.6833 20.8264C25.6963 21.3026 25.6127 21.7765 25.4378 22.2195C25.2629 22.6626 25.0002 23.0657 24.6655 23.4047Z" fill="#1C1C1C"/>
</g>
<defs>
<clipPath id="clip0_2046_5085">
<rect width="42.9545" height="42.9545" fill="white" transform="translate(0.522705 0.0229492)"/>
</clipPath>
</defs>
</svg>
