<svg width="44" height="43" viewBox="0 0 44 43" fill="none" xmlns="http://www.w3.org/2000/svg">
<g clip-path="url(#clip0_2046_5073)">
<path d="M19.1046 7.25182C19.3802 6.95661 19.534 6.56808 19.5351 6.1642V2.64394C19.5349 2.21609 19.3649 1.80583 19.0624 1.50321C18.76 1.20058 18.3498 1.03032 17.922 1.02979H11.1768C10.7488 1.03014 10.3385 1.20033 10.0359 1.50297C9.73333 1.80562 9.56323 2.21598 9.56296 2.64394V6.1642C9.56381 6.56843 9.71763 6.95736 9.99351 7.25283C8.81914 7.86295 7.83966 8.79054 7.16658 9.93C6.4935 11.0695 6.15386 12.375 6.18633 13.698V40.5043C6.18704 41.0826 6.41708 41.637 6.826 42.046C7.23492 42.4549 7.78932 42.6849 8.36762 42.6856H20.7305C21.3088 42.6849 21.8632 42.4549 22.2721 42.046C22.681 41.637 22.911 41.0826 22.9118 40.5043V13.698C22.9444 12.3748 22.6049 11.0691 21.9318 9.92943C21.2587 8.78977 20.2791 7.86202 19.1046 7.25182ZM10.5697 2.64394C10.5697 2.48302 10.6336 2.32867 10.7473 2.21479C10.861 2.10091 11.0152 2.0368 11.1761 2.03653H17.9213C18.0823 2.03662 18.2368 2.10065 18.3506 2.21456C18.4644 2.32846 18.5284 2.4829 18.5284 2.64394V6.1642C18.5275 6.32453 18.4632 6.47802 18.3497 6.59117C18.2361 6.70433 18.0823 6.76798 17.922 6.76824H17.919C17.9096 6.76824 17.9002 6.76824 17.8908 6.76824H11.206C11.1979 6.76824 11.1902 6.76824 11.1825 6.76824H11.1761C11.0158 6.76798 10.862 6.70433 10.7484 6.59117C10.6348 6.47802 10.5706 6.32453 10.5697 6.1642V2.64394ZM21.905 40.5043C21.905 40.8158 21.7813 41.1146 21.561 41.3349C21.3407 41.5551 21.042 41.6789 20.7305 41.6789H8.36762C8.05611 41.6789 7.75736 41.5551 7.53709 41.3349C7.31682 41.1146 7.19308 40.8158 7.19308 40.5043V13.698C7.16908 12.409 7.54904 11.1448 8.27969 10.0827C9.01034 9.02047 10.0551 8.21354 11.2674 7.77499H17.8307C19.043 8.21354 20.0878 9.02047 20.8184 10.0827C21.5491 11.1448 21.929 12.409 21.905 13.698V40.5043Z" fill="#1C1C1C"/>
<path d="M38.9644 29.1069H27.0217C26.3099 29.1076 25.6275 29.3907 25.1241 29.894C24.6208 30.3974 24.3377 31.0798 24.337 31.7916C24.337 32.1921 24.4961 32.5762 24.7793 32.8594C25.0625 33.1426 25.4466 33.3017 25.8472 33.3017H40.1389C40.5393 33.3013 40.9232 33.142 41.2063 32.8589C41.4894 32.5758 41.6486 32.192 41.6491 31.7916C41.6483 31.0798 41.3652 30.3974 40.8619 29.8941C40.3586 29.3908 39.6762 29.1077 38.9644 29.1069ZM40.1389 32.295H25.8472C25.7137 32.295 25.5856 32.2419 25.4912 32.1475C25.3968 32.0531 25.3438 31.9251 25.3438 31.7916C25.3443 31.3467 25.5213 30.9203 25.8358 30.6057C26.1504 30.2912 26.5768 30.1142 27.0217 30.1137H38.9644C39.4092 30.1142 39.8357 30.2912 40.1503 30.6057C40.4648 30.9203 40.6418 31.3467 40.6423 31.7916C40.6423 31.9251 40.5893 32.0531 40.4949 32.1475C40.4005 32.2419 40.2724 32.295 40.1389 32.295Z" fill="#1C1C1C"/>
<path d="M32.9909 28.5389H32.994C33.5609 28.5375 34.1219 28.423 34.6442 28.2023C35.1665 27.9815 35.6395 27.6589 36.0357 27.2533C36.4144 26.8689 36.7116 26.4119 36.9091 25.9097C37.1067 25.4075 37.2007 24.8705 37.1854 24.3311C37.135 22.574 35.5249 20.1474 34.1826 18.4211C34.0417 18.2399 33.8613 18.0932 33.6551 17.9922C33.4489 17.8913 33.2224 17.8389 32.9928 17.8389C32.7632 17.8389 32.5367 17.8913 32.3305 17.9922C32.1243 18.0932 31.9438 18.2399 31.803 18.4211C30.4606 20.1474 28.8498 22.574 28.8002 24.3311C28.7849 24.8705 28.879 25.4075 29.0766 25.9097C29.2742 26.4119 29.5714 26.8689 29.9502 27.2533C30.3462 27.6589 30.8191 27.9815 31.3412 28.2022C31.8633 28.4229 32.4241 28.5374 32.9909 28.5389ZM32.5976 19.0393C32.6444 18.979 32.7043 18.9302 32.7728 18.8967C32.8412 18.8631 32.9165 18.8456 32.9928 18.8456C33.069 18.8456 33.1443 18.8631 33.2128 18.8967C33.2813 18.9302 33.3412 18.979 33.3879 19.0393C35.1548 21.3115 36.1457 23.2005 36.179 24.3599C36.1899 24.7648 36.1189 25.1677 35.9702 25.5444C35.8215 25.9211 35.5981 26.2638 35.3135 26.552C35.0118 26.8621 34.651 27.1087 34.2524 27.2771C33.8538 27.4454 33.4255 27.5322 32.9928 27.5322C32.5601 27.5322 32.1318 27.4454 31.7332 27.2771C31.3346 27.1087 30.9737 26.8621 30.6721 26.552C30.3875 26.2638 30.1641 25.9211 30.0153 25.5444C29.8666 25.1677 29.7956 24.7648 29.8066 24.3599C29.8398 23.2012 30.8311 21.3115 32.5976 19.0393Z" fill="#1C1C1C"/>
<path d="M17.1367 16.6343H11.9829C11.0743 16.6353 10.2033 16.9966 9.56084 17.639C8.91838 18.2814 8.55697 19.1524 8.55591 20.0609V31.7486C8.55697 32.6571 8.91838 33.5281 9.56084 34.1705C10.2033 34.8129 11.0743 35.1742 11.9829 35.1752H17.1367C18.0452 35.1741 18.9162 34.8128 19.5586 34.1704C20.201 33.528 20.5623 32.657 20.5634 31.7486V20.0609C20.5623 19.1524 20.201 18.2815 19.5586 17.6391C18.9162 16.9967 18.0452 16.6353 17.1367 16.6343ZM19.5566 31.7486C19.5559 32.3901 19.3007 33.0052 18.8471 33.4589C18.3934 33.9126 17.7783 34.1677 17.1367 34.1685H11.9829C11.3413 34.1677 10.7261 33.9126 10.2724 33.4589C9.81871 33.0053 9.56345 32.3902 9.56266 31.7486V20.0609C9.56345 19.4193 9.81871 18.8042 10.2724 18.3506C10.7261 17.8969 11.3413 17.6417 11.9829 17.641H17.1367C17.7783 17.6417 18.3934 17.8969 18.8471 18.3506C19.3007 18.8042 19.5559 19.4193 19.5566 20.0609V31.7486Z" fill="#1C1C1C"/>
</g>
<defs>
<clipPath id="clip0_2046_5073">
<rect width="42.9545" height="42.9545" fill="white" transform="translate(0.45459 0.0229492)"/>
</clipPath>
</defs>
</svg>
