<svg width="30" height="30" viewBox="0 0 30 30" fill="none" xmlns="http://www.w3.org/2000/svg">
<g clip-path="url(#clip0_647_4939)">
<path d="M24.5109 29.0474C24.8063 29.0474 25.0593 28.8225 25.1016 28.513C25.5516 25.138 25.5656 25.1662 29.1516 24.4772C29.4609 24.4209 29.6859 24.1819 29.6859 23.8865C29.6859 23.5772 29.4609 23.3522 29.1374 23.2959C25.6077 22.7896 25.5374 22.7333 25.1016 19.274C25.0734 18.9506 24.8203 18.7256 24.5109 18.7256C24.1874 18.7256 23.9484 18.9646 23.9203 19.288C23.4984 22.663 23.4281 22.6209 19.8563 23.2959C19.5469 23.3662 19.3359 23.6053 19.3359 23.8865C19.3359 24.1959 19.5609 24.4209 19.9125 24.4772C23.4281 25.0537 23.4984 25.1099 23.9203 28.4849C23.9484 28.8083 24.1874 29.0474 24.5109 29.0474Z" fill="#403D95"/>
<path d="M9.23926 8.08017C9.47833 8.08017 9.6752 7.92549 9.71739 7.67236C10.1955 5.11299 10.1252 5.19736 12.6846 4.69112C12.9376 4.64893 13.1065 4.45205 13.1065 4.21299C13.1065 3.97393 12.9376 3.79112 12.6846 3.74893C10.1252 3.24267 10.1955 3.32706 9.71739 0.767676C9.6752 0.51455 9.47833 0.359863 9.23926 0.359863C9.0002 0.359863 8.80333 0.51455 8.76113 0.767676C8.28301 3.32706 8.35333 3.24267 5.79394 3.74893C5.54083 3.79112 5.37207 3.97393 5.37207 4.21299C5.37207 4.45205 5.54083 4.64893 5.79394 4.69112C8.35333 5.19736 8.28301 5.11299 8.76113 7.67236C8.80333 7.92549 9.0002 8.08017 9.23926 8.08017Z" fill="#403D95"/>
<path d="M9.21093 28.5973C11.3906 28.5973 13.1906 26.7973 13.1906 24.5895C13.1906 22.4099 11.3906 20.6099 9.21093 20.6099C7.00312 20.6099 5.20312 22.4099 5.20312 24.5895C5.20312 26.7973 7.00312 28.5973 9.21093 28.5973Z" fill="#403D95"/>
<path d="M3.72656 15.8708C5.75156 15.8708 7.43906 14.1973 7.43906 12.1442C7.43906 10.1192 5.75156 8.4458 3.72656 8.4458C1.67344 8.4458 0 10.1192 0 12.1442C0 14.1973 1.67344 15.8708 3.72656 15.8708Z" fill="#403D95"/>
<path d="M22.4576 15.238C26.1421 15.238 29.1233 12.2568 29.1233 8.57246C29.1233 4.90215 26.1421 1.9209 22.4576 1.9209C18.7873 1.9209 15.8062 4.90215 15.8062 8.57246C15.8062 12.2568 18.7873 15.238 22.4576 15.238Z" fill="#403D95"/>
<path d="M16.8188 20.8769C20.5875 20.8769 23.6391 17.8253 23.6391 14.0424C23.6391 10.2737 20.5875 7.22217 16.8188 7.22217C13.0501 7.22217 9.99854 10.2737 9.99854 14.0424C9.99854 17.8253 13.0501 20.8769 16.8188 20.8769Z" fill="#FEFEFE"/>
<path d="M16.8189 19.2317C19.6876 19.2317 22.008 16.9254 22.008 14.0425C22.008 11.1738 19.6876 8.85352 16.8189 8.85352C13.9502 8.85352 11.6299 11.1738 11.6299 14.0425C11.6299 16.9254 13.9502 19.2317 16.8189 19.2317Z" fill="#403D95"/>
</g>
<defs>
<clipPath id="clip0_647_4939">
<rect width="30" height="28.8" fill="white" transform="translate(0 0.359863)"/>
</clipPath>
</defs>
</svg>
