<svg width="44" height="44" viewBox="0 0 44 44" fill="none" xmlns="http://www.w3.org/2000/svg">
<g clip-path="url(#clip0_2046_4430)">
<path d="M41.7223 27.5402C41.7207 27.5399 41.7194 27.5391 41.7184 27.5379C41.7174 27.5366 41.7169 27.5351 41.7169 27.5335V26.0714C41.7158 25.7061 41.5828 25.3534 41.3423 25.0784C41.1018 24.8034 40.7701 24.6245 40.4081 24.5747C40.407 24.5746 40.4059 24.5741 40.4049 24.5734C40.404 24.5727 40.4032 24.5718 40.4028 24.5707C39.5397 22.632 38.5655 22.3894 37.347 22.0904C36.0909 21.7827 34.5281 21.3994 32.1065 18.8268C31.9645 18.6785 31.7893 18.566 31.5953 18.4987C31.4013 18.4313 31.1941 18.4111 30.9907 18.4396C30.7331 18.4743 30.4869 18.568 30.2716 18.7136C30.0562 18.8591 29.8773 19.0525 29.749 19.2785C29.3181 20.047 28.5607 21.0491 27.4 21.4575C26.2392 21.8659 24.5425 21.9944 22.8998 22.1219C22.3182 22.1669 21.7333 22.2122 21.1652 22.2703C21.1637 22.2703 21.1623 22.27 21.1611 22.2692C21.1599 22.2685 21.1589 22.2675 21.1582 22.2662C21.1576 22.2649 21.1573 22.2635 21.1575 22.262C21.1576 22.2606 21.1582 22.2593 21.1591 22.2582C25.0465 17.8533 26.5986 15.1995 25.7677 14.3676L22.1719 10.7715C20.6447 9.24261 13.0411 15.86 9.59597 19.303C6.15088 22.7461 -0.463108 30.3507 1.0648 31.8787L4.66056 35.4748C4.74184 35.5583 4.83982 35.6238 4.94813 35.667C5.05644 35.7101 5.17263 35.7299 5.28911 35.7251C5.82604 35.7251 6.72574 35.3761 8.37815 34.2284C10.1358 32.9671 11.8161 31.6015 13.4102 30.139C13.4113 30.1381 13.4125 30.1376 13.4139 30.1374C13.4153 30.1372 13.4167 30.1374 13.4179 30.1379C13.4192 30.1385 13.4202 30.1394 13.421 30.1405C13.4218 30.1417 13.4222 30.143 13.4223 30.1444V37.3842C13.4223 37.9299 13.6391 38.4532 14.0249 38.8391C14.4107 39.2249 14.9341 39.4417 15.4797 39.4417H41.2149C41.7606 39.4417 42.2839 39.2249 42.6697 38.8391C43.0556 38.4532 43.2723 37.9299 43.2723 37.3842V29.5242C43.2711 29.0683 43.118 28.6258 42.8373 28.2666C42.5566 27.9073 42.1643 27.6518 41.7223 27.5402ZM42.2642 29.5333V30.7561C42.2642 30.7571 42.2641 30.7581 42.2637 30.759C42.2633 30.7598 42.2628 30.7607 42.2621 30.7613C42.2614 30.762 42.2606 30.7626 42.2597 30.7629C42.2588 30.7633 42.2578 30.7635 42.2569 30.7635H14.4351C14.4341 30.7635 14.4331 30.7633 14.4322 30.7629C14.4314 30.7626 14.4305 30.762 14.4299 30.7613C14.4292 30.7607 14.4286 30.7598 14.4283 30.759C14.4279 30.7581 14.4277 30.7571 14.4277 30.7561V29.5316C14.4276 29.3935 14.4546 29.2568 14.5074 29.1292C14.5601 29.0016 14.6375 28.8856 14.7351 28.788C14.8327 28.6903 14.9485 28.6128 15.0761 28.5599C15.2036 28.5071 15.3403 28.4799 15.4784 28.4799H41.2135C41.3516 28.4799 41.4883 28.5071 41.6159 28.5599C41.7434 28.6128 41.8593 28.6903 41.9569 28.788C42.0544 28.8856 42.1318 29.0016 42.1846 29.1292C42.2373 29.2568 42.2644 29.3935 42.2642 29.5316V29.5333ZM42.2569 35.1244H14.4351C14.4341 35.1244 14.4331 35.1242 14.4322 35.1238C14.4314 35.1235 14.4305 35.1229 14.4299 35.1222C14.4292 35.1216 14.4286 35.1207 14.4283 35.1198C14.4279 35.1189 14.4277 35.118 14.4277 35.117V31.776C14.4277 31.774 14.4285 31.7721 14.4299 31.7707C14.4312 31.7694 14.4331 31.7686 14.4351 31.7686H42.2569C42.2588 31.7686 42.2607 31.7694 42.2621 31.7707C42.2635 31.7721 42.2642 31.774 42.2642 31.776V35.117C42.2642 35.119 42.2635 35.1209 42.2621 35.1222C42.2607 35.1236 42.2588 35.1244 42.2569 35.1244ZM40.7028 27.4731H15.9895C15.9875 27.4731 15.9857 27.4723 15.9843 27.471C15.9829 27.4696 15.9821 27.4677 15.9821 27.4657V26.0788C15.9821 25.9413 16.0367 25.8094 16.134 25.7122C16.2312 25.6149 16.3631 25.5603 16.5006 25.5603H40.1927C40.2608 25.5603 40.3282 25.5737 40.3911 25.5998C40.454 25.6258 40.5112 25.664 40.5593 25.7122C40.6075 25.7603 40.6456 25.8175 40.6717 25.8804C40.6978 25.9433 40.7112 26.0107 40.7112 26.0788V27.4667C40.711 27.4677 40.7107 27.4687 40.7102 27.4695C40.7098 27.4704 40.7091 27.4711 40.7083 27.4717C40.7075 27.4723 40.7066 27.4727 40.7057 27.473C40.7047 27.4732 40.7038 27.4733 40.7028 27.4731ZM22.9743 23.1253C24.6817 22.9938 26.4469 22.8569 27.7308 22.4068C29.19 21.8941 30.1108 20.69 30.6262 19.7702C30.6781 19.6825 30.7486 19.6073 30.8328 19.5501C30.9171 19.4928 31.0129 19.4549 31.1135 19.4389C31.1599 19.4285 31.2081 19.4301 31.2537 19.4437C31.2992 19.4573 31.3405 19.4823 31.3736 19.5165C33.9989 22.3065 35.7959 22.7468 37.1077 23.0683C38.0809 23.3065 38.6849 23.4582 39.2705 24.5418C39.2711 24.543 39.2714 24.5443 39.2714 24.5456C39.2714 24.5469 39.2711 24.5482 39.2705 24.5494C39.2698 24.5505 39.2689 24.5515 39.2678 24.5523C39.2667 24.553 39.2655 24.5534 39.2641 24.5536H17.5107C17.5093 24.5535 17.508 24.5531 17.5069 24.5524C17.5057 24.5517 17.5048 24.5507 17.5041 24.5495C17.5035 24.5483 17.5031 24.547 17.5031 24.5457C17.503 24.5443 17.5034 24.543 17.504 24.5418C18.0973 23.5008 20.5709 23.3119 22.9743 23.1253ZM10.3081 20.0148C16.0445 14.2784 20.649 11.4363 21.4977 11.5236C21.4996 11.5239 21.5012 11.5249 21.5024 11.5262L24.2787 14.3022C24.2796 14.303 24.2802 14.304 24.2806 14.3052C24.281 14.3063 24.281 14.3075 24.2808 14.3087C24.2806 14.3099 24.28 14.311 24.2793 14.3119C24.2785 14.3128 24.2775 14.3135 24.2764 14.3139C21.4575 15.2781 15.9707 20.1195 13.1921 22.8991C10.4135 25.6788 5.57066 31.1645 4.60687 33.9834C4.60654 33.9846 4.60588 33.9857 4.60497 33.9865C4.60406 33.9874 4.60294 33.988 4.60172 33.9882C4.6005 33.9885 4.59924 33.9884 4.59808 33.9879C4.59691 33.9875 4.59589 33.9867 4.59512 33.9858L1.81919 31.2095C1.81796 31.2082 1.81714 31.2066 1.81684 31.2048C1.72992 30.3514 4.5713 25.7516 10.3081 20.0148ZM5.60993 34.6623C5.58873 34.6691 5.56611 34.67 5.54442 34.6651C5.52273 34.6601 5.50276 34.6495 5.48659 34.6342C5.47042 34.6189 5.45864 34.5996 5.45247 34.5782C5.44631 34.5568 5.44598 34.5342 5.45153 34.5126C5.81765 33.178 8.64493 28.8715 13.9038 23.6109C19.1628 18.3503 23.4646 15.5264 24.8032 15.1593C24.8248 15.1535 24.8475 15.1537 24.869 15.1598C24.8905 15.1659 24.91 15.1777 24.9253 15.1939C24.9407 15.2101 24.9514 15.2301 24.9563 15.2519C24.9612 15.2737 24.9601 15.2964 24.9532 15.3177C24.6529 16.2184 23.1273 18.5909 19.604 22.4813C19.603 22.4824 19.6016 22.4832 19.6 22.4833C17.9617 22.7854 16.6868 23.3394 16.4177 24.5562C16.4174 24.5577 16.4167 24.559 16.4156 24.5599C16.4145 24.5609 16.4131 24.5615 16.4117 24.5616C16.0246 24.582 15.66 24.7499 15.3929 25.0308C15.1258 25.3116 14.9764 25.6841 14.9754 26.0717V27.5322C14.9754 27.5338 14.9749 27.5353 14.9739 27.5365C14.9729 27.5377 14.9715 27.5386 14.97 27.5389C14.7 27.6074 14.4467 27.7301 14.2255 27.8995C14.0044 28.0688 13.8199 28.2814 13.6834 28.5242C9.52282 32.3901 6.64419 34.3237 5.60993 34.6623ZM41.2152 38.4349H15.4784C15.1997 38.4349 14.9325 38.3242 14.7354 38.1272C14.5384 37.9301 14.4277 37.6629 14.4277 37.3842V36.1385C14.4277 36.1366 14.4285 36.1347 14.4299 36.1333C14.4312 36.1319 14.4331 36.1312 14.4351 36.1312H42.2569C42.2588 36.1312 42.2607 36.1319 42.2621 36.1333C42.2635 36.1347 42.2642 36.1366 42.2642 36.1385V37.3842C42.2642 37.6629 42.1535 37.9301 41.9565 38.1272C41.7595 38.3242 41.4922 38.4349 41.2135 38.4349H41.2152Z" fill="#1C1C1C"/>
</g>
<defs>
<clipPath id="clip0_2046_4430">
<rect width="42.9545" height="42.9545" fill="white" transform="translate(0.590942 0.727051)"/>
</clipPath>
</defs>
</svg>
