<svg width="500" height="500" viewBox="0 0 500 500" fill="none" xmlns="http://www.w3.org/2000/svg">
<mask id="mask0_663_3138" style="mask-type:luminance" maskUnits="userSpaceOnUse" x="42" y="42" width="416" height="416">
<path d="M42.4478 42.4479H457.448V457.448H42.4478V42.4479Z" fill="white"/>
</mask>
<g mask="url(#mask0_663_3138)">
<path d="M407.729 108.266C399.615 94.2083 384.896 86.349 369.76 86.3385V86.3333C354.625 86.3229 339.901 78.4583 331.792 64.4062C319.682 43.4375 292.87 36.25 271.896 48.3594V48.3646V48.349C258.87 55.8542 242.339 56.4479 228.349 48.5156C221.828 44.6719 214.234 42.4688 206.125 42.4688C189.896 42.4688 175.729 51.2865 168.146 64.3906C160.563 77.4896 146.396 86.3073 130.172 86.3073C105.953 86.3073 86.3282 105.938 86.3282 130.151V130.156L86.3126 130.151C86.3022 145.177 78.5574 159.781 64.7084 167.932C58.1147 171.656 52.4011 177.135 48.3386 184.167C40.224 198.224 40.7761 214.901 48.3386 228.016H48.3334C55.8907 241.13 56.4428 257.807 48.3282 271.865C36.2188 292.833 43.4011 319.646 64.3751 331.755H64.3803L64.3699 331.766C77.474 339.339 86.2865 353.51 86.2865 369.74C86.2865 393.953 105.917 413.578 130.13 413.578C146.359 413.578 160.521 422.396 168.109 435.5C175.688 448.599 189.854 457.422 206.083 457.422C214.193 457.422 221.787 455.214 228.307 451.375C242.297 443.443 258.828 444.036 271.854 451.542V451.526V451.531C292.828 463.641 319.641 456.453 331.75 435.484C339.865 421.432 354.583 413.568 369.719 413.557V413.552C384.854 413.542 399.578 405.677 407.688 391.63C411.682 384.708 413.578 377.151 413.568 369.703L413.573 369.708C413.589 355.104 420.906 340.891 434.037 332.62C441.115 328.901 447.255 323.198 451.547 315.76C459.667 301.703 459.115 285.026 451.552 271.911H451.557C444 258.797 443.448 242.12 451.563 228.062C463.672 207.094 456.484 180.281 435.516 168.172L435.51 168.167H435.521C422.521 160.646 413.745 146.641 413.604 130.573C413.682 122.995 411.792 115.302 407.729 108.266Z" fill="#3ABF3F"/>
</g>
<mask id="mask1_663_3138" style="mask-type:luminance" maskUnits="userSpaceOnUse" x="58" y="58" width="384" height="384">
<path d="M58 58H442V442H58V58Z" fill="white"/>
</mask>
<g mask="url(#mask1_663_3138)">
<path d="M396 118.901C388.49 105.896 374.87 98.6198 360.865 98.6146V98.6094C346.859 98.5989 333.24 91.3229 325.729 78.3229C314.526 58.9166 289.719 52.2708 270.313 63.4739H270.307V63.4635C258.255 70.4062 242.964 70.9583 230.016 63.6146C223.979 60.0625 216.953 58.0208 209.448 58.0208C194.432 58.0208 181.328 66.1823 174.307 78.3073V78.3021C167.297 90.4271 154.188 98.5833 139.172 98.5833C116.766 98.5833 98.6042 116.75 98.6042 139.156H98.5886C98.5781 153.057 91.4115 166.568 78.599 174.115C72.5 177.557 67.2084 182.63 63.4531 189.135C55.9479 202.141 56.4584 217.573 63.4479 229.708C70.4375 241.844 70.9479 257.276 63.4427 270.281C52.2396 289.682 58.8854 314.495 78.2917 325.698L78.2865 325.708C90.4115 332.719 98.5677 345.828 98.5677 360.844C98.5677 383.25 116.729 401.411 139.135 401.411C154.151 401.411 167.255 409.568 174.276 421.693C181.292 433.812 194.401 441.979 209.411 441.979C216.922 441.979 223.943 439.932 229.979 436.385C242.922 429.042 258.219 429.594 270.271 436.542V436.526L270.276 436.531C289.677 447.729 314.49 441.083 325.693 421.677C333.203 408.677 346.818 401.401 360.828 401.391L360.823 401.385C374.833 401.375 388.453 394.099 395.958 381.099C399.651 374.698 401.406 367.703 401.401 360.812L401.406 360.818C401.417 347.302 408.188 334.151 420.339 326.5C426.885 323.057 432.573 317.781 436.542 310.901C444.052 297.891 443.542 282.458 436.547 270.323H436.552C429.557 258.187 429.047 242.755 436.557 229.75C447.76 210.349 441.115 185.542 421.708 174.333H421.703L421.714 174.328C409.682 167.37 401.563 154.411 401.432 139.547C401.505 132.531 399.755 125.411 396 118.901Z" fill="#F5FFF5"/>
</g>
<path d="M112.295 269.135C109.654 269.87 107.654 270.786 107.253 273.953C105.436 271.573 102.899 270.875 100.483 271.448C96.5971 272.364 93.6805 275.682 95.2846 282.479L98.1857 294.739L123.128 288.843L121.472 281.833L112.858 283.875L111.993 280.229C111.529 278.265 111.634 276.838 114.446 276.062L117.264 275.286C118.337 274.995 119.076 274.672 119.67 274.198L117.962 266.979C117.446 267.474 116.628 267.927 115.587 268.208L112.295 269.135ZM101.993 286.442L101.003 282.239C100.514 280.172 101.347 278.864 103.139 278.437C104.956 278.01 106.259 278.812 106.748 280.88L107.743 285.083L101.993 286.442Z" fill="#3ABF3F"/>
<path d="M91.1948 243.227L91.95 263.446L117.565 262.488L116.809 242.269L110.403 242.509L110.893 255.53L107.476 255.66L107.028 243.785L100.986 244.014L101.429 255.884L98.0854 256.009L97.5959 242.988L91.1948 243.227Z" fill="#3ABF3F"/>
<path d="M119.542 225.704C120.636 219.173 117.792 213.48 111.147 211.527L109.959 218.631C112.641 219.626 113.855 221.98 113.402 224.678C112.777 228.407 109.808 229.808 105.407 229.074C101.037 228.344 98.6467 226.048 99.2717 222.318C99.704 219.73 101.412 218.006 103.975 217.74L105.173 210.568C98.631 210.423 94.1935 214.902 93.1258 221.292C91.7769 229.391 96.0737 235.11 104.173 236.459C112.266 237.813 118.24 233.516 119.542 225.704Z" fill="#3ABF3F"/>
<path d="M127.499 197.751C130.499 190.381 127.744 183.314 120.176 180.23C112.608 177.142 105.697 180.277 102.697 187.642C99.6811 195.043 102.447 202.079 110.014 205.163C117.582 208.251 124.483 205.152 127.499 197.751ZM121.733 195.402C120.374 198.736 117.077 199.954 112.843 198.23C108.639 196.517 107.103 193.329 108.462 189.991C109.822 186.657 113.15 185.449 117.353 187.163C121.587 188.887 123.087 192.064 121.733 195.402Z" fill="#3ABF3F"/>
<path d="M130.485 159.042C131.656 160.427 132.922 161.927 134.177 163.329C132.458 162.568 130.641 161.823 128.958 161.136L119.656 157.401L113.177 166.313L133.912 181.381L137.932 175.849L132.052 171.573C128.589 169.058 125.656 166.969 122.229 164.698C124.016 165.422 125.61 166.047 127.719 166.823L140.875 171.802L144.307 167.084L135.511 156.105C134.12 154.339 133.037 153.016 131.797 151.537C135.011 154.099 137.901 156.245 141.365 158.761L147.25 163.037L151.271 157.506L130.537 142.433L124.057 151.344L130.485 159.042Z" fill="#3ABF3F"/>
<path d="M157.093 131.383C157.874 133.024 158.718 134.8 159.572 136.472C158.104 135.3 156.536 134.118 155.083 133.024L147.041 127.04L138.51 134.003L154.713 153.868L160.01 149.54L155.416 143.904C152.708 140.587 150.4 137.821 147.666 134.753C149.213 135.91 150.598 136.92 152.437 138.206L163.89 146.378L168.406 142.691L162.702 129.831C161.807 127.769 161.098 126.212 160.275 124.467C162.729 127.764 164.979 130.571 167.687 133.894L172.286 139.529L177.583 135.201L161.38 115.342L152.843 122.305L157.093 131.383Z" fill="#3ABF3F"/>
<path d="M189.153 100.785L171.033 109.79L182.439 132.744L200.559 123.738L197.71 118.004L186.038 123.801L184.517 120.738L195.153 115.452L192.46 110.035L181.824 115.322L180.335 112.327L192.001 106.525L189.153 100.785Z" fill="#3ABF3F"/>
<path d="M215.318 97.0171C216.354 100.913 217.276 104.241 218.396 107.892C216.745 106.022 214.812 104.08 213.349 102.642L205.755 95.2307L198.417 97.1838L204.995 121.955L211.604 120.199L210.536 116.163C209.5 112.267 208.588 108.97 207.469 105.319C209.073 107.163 210.635 108.689 212.505 110.538L220.094 117.944L227.437 115.996L220.859 91.2255L214.245 92.9807L215.318 97.0171Z" fill="#3ABF3F"/>
<path d="M242.934 89.0557L231.751 89.5452L232.876 115.155L244.064 114.66C253.236 114.259 257.1 108.826 256.772 101.274C256.439 93.7171 252.106 88.6494 242.934 89.0557ZM239.804 108.795L239.21 95.2692L243.059 95.1025C246.475 94.9515 249.069 96.6025 249.288 101.603C249.512 106.603 247.069 108.472 243.653 108.623L239.804 108.795Z" fill="#3ABF3F"/>
<path d="M285.921 92.5288L265.942 89.3413L261.9 114.649L281.88 117.841L282.89 111.513L270.02 109.456L270.562 106.081L282.291 107.951L283.244 101.982L271.515 100.107L272.041 96.7996L284.911 98.8569L285.921 92.5288Z" fill="#3ABF3F"/>
<path d="M306.042 98.9142L295.563 94.9663L286.521 118.951L297.001 122.899C305.589 126.138 311.282 122.669 313.949 115.597C316.615 108.518 314.631 102.154 306.042 98.9142ZM295.396 115.831L300.167 103.164L303.771 104.524C306.975 105.732 308.709 108.268 306.943 112.951C305.178 117.633 302.199 118.399 299.001 117.19L295.396 115.831Z" fill="#3ABF3F"/>
<path d="M355.187 127.807L339.676 115.974L324.129 136.354L329.853 140.719L335.812 132.906L344.973 139.896L348.64 135.083L339.484 128.099L341.515 125.437L351.301 132.906L355.187 127.807Z" fill="#3ABF3F"/>
<path d="M350.557 160.657C355.781 166.662 363.333 167.386 369.5 162.022C375.661 156.652 375.979 149.074 370.755 143.074C365.51 137.043 357.979 136.345 351.817 141.709C345.651 147.079 345.307 154.631 350.557 160.657ZM355.255 156.569C352.89 153.855 353.286 150.36 356.734 147.36C360.151 144.381 363.698 144.444 366.057 147.162C368.422 149.876 368 153.391 364.583 156.371C361.135 159.376 357.619 159.287 355.255 156.569Z" fill="#3ABF3F"/>
<path d="M377.853 190.354C380.196 188.938 381.884 187.521 381.42 184.365C383.811 186.172 386.436 186.162 388.613 184.964C392.113 183.042 394.035 179.063 390.67 172.948L384.592 161.906L362.139 174.266L365.608 180.573L373.368 176.302L375.17 179.583C376.144 181.349 376.426 182.755 373.92 184.255L371.42 185.755C370.462 186.328 369.837 186.833 369.394 187.448L372.967 193.943C373.332 193.333 373.999 192.682 374.926 192.13L377.853 190.354ZM383.144 170.922L385.228 174.708C386.254 176.568 385.795 178.052 384.186 178.938C382.545 179.839 381.077 179.417 380.056 177.552L377.972 173.771L383.144 170.922Z" fill="#3ABF3F"/>
<path d="M404.01 219.525C401.843 218.837 399.452 218.119 397.15 217.499C398.963 215.941 400.765 214.353 402.567 212.764L405.046 210.556L403.395 202.629L389.906 215.181L380.244 217.191L381.713 224.244L391.369 222.233L408.723 228.212L407.114 220.494L404.01 219.525Z" fill="#3ABF3F"/>
<path d="M383.186 249.332C383.093 257.285 388.254 262.853 396.426 262.947C404.598 263.04 409.879 257.587 409.968 249.634C410.056 241.644 404.9 236.113 396.728 236.019C388.556 235.926 383.275 241.342 383.186 249.332ZM389.41 249.4C389.452 245.801 392.072 243.457 396.645 243.509C401.181 243.556 403.78 245.962 403.738 249.561C403.697 253.165 401.046 255.509 396.509 255.457C391.936 255.405 389.374 253.004 389.41 249.4Z" fill="#3ABF3F"/>
<path d="M379.744 277.897C378.202 284.522 380.499 289.897 387.27 291.47L402.66 295.048L404.29 288.038L388.9 284.46C386.233 283.84 385.212 281.866 385.811 279.303C386.405 276.746 388.191 275.423 390.853 276.043L406.249 279.621L407.879 272.611L392.483 269.032C385.717 267.46 381.212 271.585 379.744 277.897Z" fill="#3ABF3F"/>
<path d="M245.537 333.01C234.469 333.01 223.485 331.016 213.235 326.854C194.844 319.365 178.922 304.135 169.568 285.073C159.953 265.484 158.063 244.276 164.235 225.359C170.86 205.078 185.339 188.896 206.11 178.552C230.792 166.26 260.839 164.193 286.479 173.021C315.729 183.089 337.453 208.802 340.542 237.01C342.641 256.125 336.365 277.047 323.339 294.443C304.974 318.948 274.964 333.01 245.537 333.01ZM253.354 173.01C237.912 173.01 222.333 176.516 208.516 183.391C194.964 190.146 177.162 203.193 169.38 227.026C157.688 262.823 179.136 307.125 215.271 321.833C250.563 336.193 295.162 323.026 319.011 291.193C331.229 274.891 337.115 255.359 335.172 237.599C332.302 211.432 312.026 187.536 284.719 178.135C274.761 174.708 264.089 173.01 253.354 173.01Z" fill="#3ABF3F"/>
<path d="M246.078 324.156C236.188 324.156 226.375 322.375 217.219 318.651C200.797 311.969 186.578 298.365 178.224 281.333C169.641 263.844 167.943 244.911 173.458 228.031C179.37 209.932 192.302 195.49 210.849 186.255C232.927 175.266 259.792 173.411 282.719 181.313C308.828 190.302 328.229 213.25 330.984 238.417C332.859 255.469 327.255 274.156 315.615 289.682C299.198 311.589 272.37 324.156 246.078 324.156ZM253.104 180.245C239.13 180.245 225.031 183.417 212.537 189.641C200.255 195.76 184.125 207.589 177.063 229.198C166.464 261.646 185.901 301.802 218.656 315.135C250.615 328.141 291 316.214 312.599 287.401C323.667 272.63 329 254.927 327.234 238.818C324.63 215.078 306.25 193.401 281.495 184.885C272.474 181.781 262.818 180.245 253.104 180.245Z" fill="#3ABF3F"/>
<path d="M249.037 294.589C240.047 294.589 231.318 292.182 224.058 287.557C213.005 280.505 205.896 268.427 205.505 256.026C205.469 254.828 206.406 253.833 207.604 253.797C208.823 253.771 209.797 254.698 209.834 255.891C210.177 266.885 216.521 277.615 226.386 283.906C235.688 289.828 247.698 291.734 259.334 289.109C269.995 286.708 280.386 280.474 288.584 271.563C293.662 266.042 295.964 261.115 295.625 256.495C295.531 255.307 296.433 254.266 297.62 254.177C298.813 254.099 299.854 254.984 299.943 256.177C300.37 262.057 297.703 268.052 291.766 274.49C282.974 284.047 271.787 290.74 260.276 293.323C256.547 294.182 252.771 294.589 249.037 294.589Z" fill="#3ABF3F"/>
<path d="M241.724 226.474C241.63 228.5 241.318 230.594 240.177 232.276C239.042 233.958 236.901 235.094 234.964 234.516C232.651 233.828 231.594 231.214 230.917 228.906C229.464 223.964 227.854 213.13 235.417 211.776C241.927 210.609 241.917 222.24 241.724 226.474Z" fill="#3ABF3F"/>
<path d="M278.765 226.474C278.672 228.5 278.359 230.594 277.219 232.276C276.088 233.958 273.943 235.094 272.005 234.516C269.693 233.828 268.635 231.214 267.958 228.906C266.505 223.964 264.896 213.13 272.458 211.776C278.974 210.609 278.969 222.24 278.765 226.474Z" fill="#3ABF3F"/>
<path d="M186.128 381.835C191.289 381.835 194.43 379.309 194.43 375.262C194.43 371.773 191.997 370.044 188.737 369.252L184.576 368.226C182.961 367.814 182.138 367.023 182.138 365.877C182.138 364.471 183.372 363.356 185.602 363.356C187.888 363.356 189.591 364.559 189.852 366.669H194.076C193.815 362.564 190.617 359.804 185.57 359.804C180.206 359.804 177.768 363.002 177.768 366.346C177.768 369.278 179.648 371.33 182.904 372.153L186.747 373.122C188.737 373.622 189.94 374.179 189.94 375.674C189.94 377.314 188.477 378.283 186.102 378.283C183.341 378.283 181.643 376.992 181.523 374.674H177.273C177.388 379.195 180.82 381.835 186.128 381.835Z" fill="#3ABF3F"/>
<path d="M211.85 366.023H206.657L203.287 369.778L201.407 372.127L201.527 368.632V360.273H197.392V381.158H201.527V376.143L203.11 374.502L204.168 376.434L207.069 381.158H211.97L205.954 371.976L211.85 366.023Z" fill="#3ABF3F"/>
<path d="M218.392 364.028V360.273H214.257V364.028H218.392ZM218.361 381.158V366.023H214.226V381.158H218.361Z" fill="#3ABF3F"/>
<path d="M230.413 365.643C228.481 365.643 227.043 366.434 226.043 368.075L225.986 366.023H221.939V381.158H226.074V373.065C226.074 370.804 227.278 369.367 229.038 369.367C230.501 369.367 231.236 370.367 231.236 371.95V381.158H235.371V371.012C235.371 367.726 233.554 365.643 230.413 365.643Z" fill="#3ABF3F"/>
<path d="M247.189 381.835C252.351 381.835 255.491 379.309 255.491 375.262C255.491 371.773 253.059 370.044 249.799 369.252L245.637 368.226C244.022 367.814 243.2 367.023 243.2 365.877C243.2 364.471 244.434 363.356 246.663 363.356C248.95 363.356 250.653 364.559 250.913 366.669H255.137C254.877 362.564 251.679 359.804 246.632 359.804C241.267 359.804 238.83 363.002 238.83 366.346C238.83 369.278 240.71 371.33 243.965 372.153L247.809 373.122C249.799 373.622 251.002 374.179 251.002 375.674C251.002 377.314 249.538 378.283 247.163 378.283C244.403 378.283 242.705 376.992 242.585 374.674H238.335C238.45 379.195 241.882 381.835 247.189 381.835Z" fill="#3ABF3F"/>
<path d="M272.854 374.117C272.854 368.809 269.567 365.643 265.083 365.643C260.448 365.643 257.63 369.106 257.63 373.533C257.63 378.169 260.505 381.658 265.521 381.658C268.922 381.658 271.448 380.075 272.474 376.788L268.364 376.497C267.869 377.815 266.869 378.46 265.432 378.46C263.38 378.46 262.062 377.111 261.885 374.825H272.854V374.117ZM265.229 368.663C267.104 368.663 268.338 369.898 268.573 372.007H261.854C262.062 369.924 263.349 368.663 265.229 368.663Z" fill="#3ABF3F"/>
<path d="M284.083 365.643C282.151 365.643 280.714 366.434 279.714 368.075L279.656 366.023H275.609V381.158H279.745V373.065C279.745 370.804 280.948 369.367 282.708 369.367C284.172 369.367 284.906 370.367 284.906 371.95V381.158H289.042V371.012C289.042 367.726 287.224 365.643 284.083 365.643Z" fill="#3ABF3F"/>
<path d="M298.953 381.716C303.031 381.716 305.672 379.867 305.672 376.669C305.672 374.325 304.266 372.945 301.245 372.33L297.984 371.653C296.901 371.419 296.286 370.924 296.286 370.132C296.286 369.163 297.167 368.518 298.542 368.518C300.099 368.518 301.214 369.309 301.417 370.627L305.141 370.481C304.76 367.518 302.271 365.643 298.604 365.643C294.875 365.643 292.443 367.58 292.443 370.627C292.443 372.945 293.88 374.471 296.844 375.059L299.833 375.643C301.214 375.908 301.828 376.346 301.828 377.169C301.828 378.315 300.656 378.841 299.099 378.841C297.135 378.841 296.109 377.992 295.875 376.497L292.094 376.643C292.474 379.867 294.818 381.716 298.953 381.716Z" fill="#3ABF3F"/>
<path d="M322.917 374.117C322.917 368.809 319.63 365.643 315.146 365.643C310.511 365.643 307.693 369.106 307.693 373.533C307.693 378.169 310.568 381.658 315.583 381.658C318.985 381.658 321.511 380.075 322.537 376.788L318.427 376.497C317.932 377.815 316.932 378.46 315.495 378.46C313.443 378.46 312.125 377.111 311.948 374.825H322.917V374.117ZM315.292 368.663C317.167 368.663 318.401 369.898 318.636 372.007H311.917C312.125 369.924 313.412 368.663 315.292 368.663Z" fill="#3ABF3F"/>
</svg>
