<svg width="44" height="43" viewBox="0 0 44 43" fill="none" xmlns="http://www.w3.org/2000/svg">
<g clip-path="url(#clip0_2046_6089)">
<path d="M32.0721 38.643C31.9725 38.643 31.8752 38.6135 31.7924 38.5581C31.7097 38.5028 31.6451 38.4242 31.607 38.3322C31.5689 38.2403 31.559 38.139 31.5784 38.0414C31.5978 37.9438 31.6458 37.8541 31.7162 37.7837C31.7866 37.7133 31.8763 37.6653 31.9739 37.6459C32.0715 37.6265 32.1728 37.6364 32.2647 37.6745C32.3567 37.7126 32.4353 37.7772 32.4906 37.8599C32.546 37.9427 32.5755 38.04 32.5755 38.1396C32.5755 38.2058 32.5624 38.2714 32.537 38.3325C32.5116 38.3937 32.4744 38.4493 32.4276 38.496C32.3807 38.5428 32.325 38.5798 32.2638 38.605C32.2026 38.6303 32.137 38.6432 32.0708 38.643H32.0721Z" fill="#1C1C1C"/>
<path d="M32.0715 38.6432C31.6382 38.6423 31.2095 38.5549 30.8103 38.3863C30.4112 38.2178 30.0497 37.9713 29.7469 37.6613C29.457 37.367 29.2296 37.017 29.0785 36.6325C28.9273 36.248 28.8555 35.8369 28.8674 35.424C28.9053 34.1004 30.0993 32.2977 31.0943 31.0184C31.21 30.8695 31.3582 30.749 31.5277 30.6661C31.6971 30.5831 31.8832 30.54 32.0718 30.54C32.2604 30.54 32.4466 30.5831 32.616 30.6661C32.7854 30.749 32.9337 30.8695 33.0494 31.0184C34.044 32.2977 35.2374 34.1008 35.2756 35.4236C35.2874 35.8366 35.2156 36.2477 35.0644 36.6322C34.9131 37.0167 34.6857 37.3666 34.3957 37.6609C34.0931 37.971 33.7317 38.2175 33.3326 38.3862C32.9335 38.5549 32.5048 38.6422 32.0715 38.6432ZM32.0715 31.547C32.0361 31.5467 32.0012 31.5547 31.9695 31.5702C31.9377 31.5858 31.91 31.6085 31.8886 31.6366C30.6312 33.2534 29.8962 34.6444 29.8731 35.4528C29.8657 35.7312 29.9147 36.0081 30.017 36.267C30.1194 36.526 30.273 36.7615 30.4688 36.9596C30.677 37.1738 30.9261 37.3441 31.2013 37.4603C31.4765 37.5766 31.7722 37.6365 32.071 37.6365C32.3697 37.6365 32.6655 37.5766 32.9407 37.4603C33.2159 37.3441 33.465 37.1738 33.6732 36.9596C33.869 36.7616 34.0227 36.526 34.1251 36.2671C34.2275 36.0081 34.2766 35.7312 34.2692 35.4528C34.2454 34.6447 33.5115 33.2537 32.2557 31.6366C32.2342 31.6084 32.2063 31.5856 32.1744 31.57C32.1425 31.5545 32.107 31.5466 32.0715 31.547Z" fill="#1C1C1C"/>
<path d="M36.2575 9.69545H35.4273C35.0065 9.03334 34.5756 6.96481 34.5212 2.89353C34.5137 2.2529 34.254 1.64107 33.7983 1.19071C33.3426 0.740357 32.7278 0.487793 32.0871 0.487793C31.4464 0.487793 30.8316 0.740357 30.3759 1.19071C29.9202 1.64107 29.6605 2.2529 29.653 2.89353C29.5986 6.96481 29.168 9.03469 28.7469 9.69545H27.9166C27.3472 9.69598 26.8012 9.92243 26.3986 10.3251C25.9959 10.7278 25.7695 11.2737 25.7689 11.8432V14.6543C25.7695 15.2238 25.996 15.7697 26.3987 16.1723C26.8013 16.575 27.3472 16.8015 27.9166 16.8021H29.657L29.9066 26.3521C29.9066 27.2135 30.7718 29.3388 32.0769 29.3388C33.3819 29.3388 34.2471 27.2132 34.2467 26.3648L34.4967 16.8007H36.2575C36.827 16.8002 37.373 16.5737 37.7756 16.1711C38.1783 15.7684 38.4047 15.2225 38.4053 14.653V11.8428C38.4047 11.2734 38.1782 10.7276 37.7755 10.325C37.3729 9.92238 36.8269 9.69598 36.2575 9.69545ZM30.6597 2.90695C30.6568 2.71766 30.6916 2.52968 30.762 2.35396C30.8324 2.17823 30.9371 2.01827 31.0699 1.88339C31.2028 1.7485 31.3611 1.64138 31.5357 1.56827C31.7104 1.49515 31.8978 1.4575 32.0871 1.4575C32.2764 1.4575 32.4638 1.49515 32.6385 1.56827C32.8131 1.64138 32.9714 1.7485 33.1042 1.88339C33.2371 2.01827 33.3418 2.17823 33.4122 2.35396C33.4826 2.52968 33.5174 2.71766 33.5145 2.90695C33.5581 6.17452 33.8286 8.44406 34.3199 9.69545H29.8566C30.3453 8.44607 30.6161 6.17418 30.6597 2.90695ZM33.242 26.3521C33.242 26.9417 32.5534 28.332 32.0785 28.332C31.6037 28.332 30.9151 26.9414 30.9147 26.3383L30.6637 16.8021H33.49L33.242 26.3521ZM37.3982 14.6543C37.3982 14.957 37.278 15.2472 37.064 15.4611C36.85 15.6751 36.5598 15.7953 36.2572 15.7953H27.9166C27.7668 15.7953 27.6184 15.7658 27.48 15.7085C27.3416 15.6511 27.2158 15.5671 27.1099 15.4611C27.0039 15.3552 26.9199 15.2294 26.8625 15.091C26.8052 14.9526 26.7757 14.8042 26.7757 14.6543V11.8428C26.7757 11.693 26.8052 11.5446 26.8625 11.4062C26.9199 11.2678 27.0039 11.142 27.1099 11.036C27.2158 10.9301 27.3416 10.8461 27.48 10.7887C27.6184 10.7314 27.7668 10.7019 27.9166 10.7019H36.2575C36.5602 10.7019 36.8504 10.8221 37.0643 11.036C37.2783 11.25 37.3985 11.5402 37.3985 11.8428L37.3982 14.6543Z" fill="#1C1C1C"/>
<path d="M20.5391 21.1489C20.0783 20.2372 19.4112 19.4455 18.5907 18.8367C18.3841 18.685 18.2316 18.4709 18.1557 18.226C18.0798 17.9811 18.0844 17.7183 18.1689 17.4763L18.236 17.2833C18.5977 17.2305 18.9267 17.0447 19.1586 16.7622C19.3905 16.4796 19.5087 16.1208 19.4901 15.7558C19.4715 15.3907 19.3173 15.0458 19.0579 14.7883C18.7984 14.5309 18.4522 14.3795 18.087 14.3638H9.04644C8.6819 14.3806 8.33669 14.5326 8.07808 14.7901C7.81948 15.0475 7.666 15.3921 7.64757 15.7565C7.62914 16.121 7.74707 16.4793 7.97838 16.7615C8.20969 17.0438 8.5378 17.2298 8.89879 17.2833L8.9659 17.4723C9.01011 17.5999 9.03279 17.7339 9.03302 17.8689C9.03354 18.0575 8.98942 18.2435 8.90426 18.4118C8.81911 18.5801 8.69534 18.7258 8.54307 18.8371C7.72257 19.4467 7.05566 20.2393 6.59542 21.152C6.13518 22.0647 5.89431 23.0722 5.89197 24.0943V40.105C5.89321 40.7753 6.1603 41.4179 6.63465 41.8916C7.109 42.3653 7.75187 42.6315 8.42226 42.6319H18.7112C19.3816 42.6315 20.0245 42.3653 20.4988 41.8916C20.9732 41.4179 21.2403 40.7753 21.2415 40.105V24.0943C21.24 23.0712 20.9995 22.0626 20.5391 21.1489ZM9.04644 15.3698H18.088C18.1993 15.3855 18.3011 15.4408 18.3748 15.5255C18.4484 15.6103 18.489 15.7188 18.489 15.8311C18.489 15.9434 18.4484 16.0519 18.3748 16.1367C18.3011 16.2215 18.1993 16.2767 18.088 16.2924H9.04644C8.93523 16.2767 8.8334 16.2215 8.75972 16.1367C8.68604 16.0519 8.64546 15.9434 8.64546 15.8311C8.64546 15.7188 8.68604 15.6103 8.75972 15.5255C8.8334 15.4408 8.93523 15.3855 9.04644 15.3698ZM20.2348 40.105C20.2339 40.5084 20.073 40.8951 19.7873 41.1801C19.5017 41.4651 19.1147 41.6251 18.7112 41.6251H8.42226C8.01877 41.6251 7.63176 41.4651 7.34614 41.1801C7.06051 40.8951 6.8996 40.5084 6.89871 40.105V24.0943C6.90064 23.2295 7.10441 22.377 7.49381 21.6048C7.88321 20.8326 8.4475 20.1619 9.14175 19.6462C9.50122 19.3852 9.7719 19.0202 9.9172 18.6004C10.0625 18.1807 10.0754 17.7264 9.95419 17.2991H17.1786C17.0609 17.7271 17.0757 18.1807 17.2211 18.6001C17.3665 19.0195 17.6357 19.3849 17.9931 19.6482C18.6877 20.163 19.2522 20.8332 19.6414 21.6053C20.0307 22.3773 20.2339 23.2297 20.2348 24.0943V40.105Z" fill="#1C1C1C"/>
<path d="M16.4779 23.9263H10.6573C10.1946 23.9269 9.75115 24.1109 9.42403 24.4381C9.0969 24.7652 8.91285 25.2087 8.91223 25.6713V36.4153C8.91276 36.878 9.09679 37.3215 9.42393 37.6486C9.75107 37.9758 10.1946 38.1598 10.6573 38.1603H16.4796C16.9423 38.1598 17.3858 37.9758 17.7129 37.6486C18.0401 37.3215 18.2241 36.878 18.2246 36.4153V25.6716C18.2241 25.2087 18.0399 24.7648 17.7124 24.4376C17.3849 24.1103 16.9409 23.9264 16.4779 23.9263ZM17.2162 36.4156C17.2162 36.6114 17.1384 36.7992 17 36.9377C16.8615 37.0761 16.6737 37.1539 16.4779 37.1539H10.6573C10.4615 37.1539 10.2737 37.0761 10.1352 36.9377C9.99676 36.7992 9.91898 36.6114 9.91898 36.4156V25.6716C9.91898 25.4758 9.99676 25.288 10.1352 25.1496C10.2737 25.0111 10.4615 24.9334 10.6573 24.9334H16.4796C16.6754 24.9334 16.8632 25.0111 17.0017 25.1496C17.1401 25.288 17.2179 25.4758 17.2179 25.6716L17.2162 36.4156Z" fill="#1C1C1C"/>
</g>
<defs>
<clipPath id="clip0_2046_6089">
<rect width="42.9545" height="42.9545" fill="white" transform="translate(0.522705 0.0229492)"/>
</clipPath>
</defs>
</svg>
