<svg width="44" height="43" viewBox="0 0 44 43" fill="none" xmlns="http://www.w3.org/2000/svg">
<g clip-path="url(#clip0_2046_2198)">
<path d="M21.9999 22.9353C22.4778 22.9192 22.9335 22.7297 23.2818 22.402C23.383 22.315 23.4455 22.1912 23.4555 22.0581C23.4655 21.925 23.4221 21.7933 23.335 21.6921C23.248 21.5909 23.1242 21.5285 22.9911 21.5185C22.858 21.5085 22.7263 21.5518 22.6251 21.6389C22.5476 21.7289 22.4517 21.801 22.3438 21.8505C22.2359 21.8999 22.1186 21.9255 21.9999 21.9255C21.8812 21.9255 21.7639 21.8999 21.656 21.8505C21.5482 21.801 21.4522 21.7289 21.3747 21.6389C21.3246 21.5958 21.2665 21.563 21.2037 21.5423C21.1409 21.5217 21.0747 21.5136 21.0088 21.5185C20.9428 21.5234 20.8785 21.5413 20.8195 21.5711C20.7605 21.6009 20.7079 21.642 20.6648 21.6921C20.6217 21.7422 20.5889 21.8003 20.5682 21.8631C20.5475 21.9259 20.5394 21.9922 20.5444 22.0581C20.5493 22.124 20.5672 22.1883 20.597 22.2473C20.6268 22.3064 20.6679 22.3589 20.718 22.402C21.0663 22.7297 21.522 22.9192 21.9999 22.9353Z" fill="#1C1C1C"/>
<path d="M24.498 24.7308H24.4923C24.1057 24.8102 23.7083 24.8215 23.3178 24.7643C23.2205 24.7506 23.1252 24.7308 23.0124 24.7103C22.8523 24.6735 22.687 24.6657 22.5241 24.6871C22.3537 24.7171 22.1917 24.7835 22.0493 24.8818C22.0339 24.8904 22.0166 24.8949 21.9989 24.8949C21.9813 24.8949 21.964 24.8904 21.9486 24.8818C21.8063 24.7835 21.6444 24.7171 21.4741 24.6871C21.3111 24.6656 21.1457 24.6735 20.9855 24.7103C20.8727 24.7321 20.7774 24.7506 20.6801 24.7643C20.2896 24.8215 19.8921 24.8102 19.5056 24.7308H19.4995C19.4119 24.7134 19.321 24.7291 19.2443 24.7748C19.1676 24.8205 19.1106 24.893 19.0842 24.9783C19.0578 25.0636 19.064 25.1557 19.1016 25.2367C19.1391 25.3177 19.2053 25.382 19.2874 25.417C19.7499 25.6162 20.2503 25.712 20.7536 25.6976C20.8784 25.6939 21.0046 25.6832 21.1127 25.6748C21.2228 25.6681 21.3315 25.7028 21.4174 25.7721C21.5813 25.8717 21.7686 25.926 21.9603 25.9295H22.0355C22.2272 25.926 22.4146 25.8717 22.5785 25.7721C22.6645 25.7028 22.7733 25.6681 22.8835 25.6748C22.9913 25.6832 23.1184 25.6939 23.2423 25.6976C23.7456 25.712 24.246 25.6162 24.7084 25.417C24.7907 25.382 24.857 25.3178 24.8946 25.2367C24.9322 25.1556 24.9383 25.0634 24.9119 24.978C24.8855 24.8927 24.8283 24.8201 24.7515 24.7744C24.6747 24.7288 24.5836 24.7132 24.496 24.7308H24.498Z" fill="#1C1C1C"/>
<path d="M22.322 26.547C22.2229 26.5998 22.1122 26.6275 21.9999 26.6275C21.8875 26.6275 21.7768 26.5998 21.6777 26.547C21.6178 26.5146 21.5519 26.4946 21.4841 26.4884C21.4163 26.4822 21.3479 26.4898 21.2831 26.5108C21.2184 26.5318 21.1585 26.5657 21.1072 26.6105C21.0559 26.6552 21.0142 26.71 20.9846 26.7713C20.9551 26.8327 20.9383 26.8994 20.9353 26.9674C20.9323 27.0355 20.9431 27.1034 20.9671 27.1671C20.9911 27.2309 21.0278 27.2891 21.075 27.3382C21.1221 27.3874 21.1788 27.4264 21.2414 27.453C21.4772 27.5709 21.7372 27.6322 22.0009 27.6322C22.2645 27.6322 22.5245 27.5709 22.7603 27.453C22.8741 27.3915 22.9598 27.2884 22.9997 27.1653C23.0395 27.0422 23.0305 26.9085 22.9743 26.7919C22.9182 26.6753 22.8193 26.5848 22.6982 26.5392C22.5771 26.4936 22.4431 26.4964 22.324 26.547H22.322Z" fill="#1C1C1C"/>
<path d="M24.9349 15.4451L24.9513 15.4421C25.8017 15.3167 26.6607 15.2599 27.5202 15.2723C27.9639 15.2593 28.408 15.2726 28.8501 15.3122C29.2852 15.3475 29.7155 15.4272 30.1344 15.5501L30.1491 15.5548C30.2038 15.5721 30.2629 15.5684 30.3151 15.5446C30.3673 15.5208 30.4087 15.4785 30.4316 15.4259C30.4544 15.3733 30.4569 15.3142 30.4386 15.2598C30.4204 15.2055 30.3826 15.1598 30.3327 15.1317C29.9045 14.9023 29.4486 14.7287 28.9763 14.6152C28.5146 14.4942 28.0459 14.4017 27.5729 14.338C27.0951 14.2752 26.6115 14.2689 26.1322 14.3192C25.6346 14.3638 25.1477 14.4897 24.6909 14.692C24.6025 14.733 24.5321 14.8049 24.4931 14.8942C24.4541 14.9835 24.4491 15.084 24.4791 15.1767C24.5092 15.2694 24.5721 15.3479 24.6561 15.3973C24.74 15.4468 24.8392 15.4638 24.9349 15.4451Z" fill="#1C1C1C"/>
<path d="M29.2781 18.2749C29.2069 18.1594 29.1085 18.0631 28.9915 17.9942C28.8746 17.9254 28.7425 17.8862 28.607 17.8799C28.3639 17.8693 28.1217 17.9147 27.8989 18.0125L27.7533 18.0756L27.6455 18.1252C27.571 18.1558 27.4982 18.1883 27.421 18.2145C27.2717 18.2762 27.1163 18.3266 26.962 18.3752C26.6609 18.4709 26.3505 18.5342 26.0361 18.5638C25.754 18.5963 25.4683 18.5697 25.1971 18.4857L25.1505 18.4699C25.071 18.4433 24.9847 18.4452 24.9065 18.4754C24.8282 18.5056 24.763 18.5621 24.722 18.6352C24.681 18.7084 24.6668 18.7935 24.6819 18.876C24.6969 18.9584 24.7403 19.0331 24.8045 19.087C25.1589 19.3669 25.5972 19.5195 26.0488 19.5203C26.4601 19.5297 26.8701 19.4706 27.262 19.3454C27.4533 19.2846 27.6403 19.2109 27.8217 19.1249C27.9123 19.082 28.0006 19.0306 28.0902 18.9813L28.2217 18.9018C28.2633 18.8753 28.2835 18.8581 28.3157 18.8347C28.419 18.7657 28.5293 18.7075 28.6446 18.6612C28.748 18.6129 28.863 18.5951 28.9761 18.6098L29.0385 18.6182C29.0874 18.6248 29.137 18.6159 29.1805 18.5927C29.2078 18.5783 29.232 18.5586 29.2516 18.5348C29.2713 18.511 29.2861 18.4836 29.2952 18.4541C29.3043 18.4245 29.3074 18.3935 29.3045 18.3628C29.3016 18.332 29.2926 18.3022 29.2781 18.2749Z" fill="#1C1C1C"/>
<path d="M19.3052 18.6967C19.2748 18.6062 19.2096 18.5315 19.1241 18.489C19.0386 18.4465 18.9397 18.4398 18.8491 18.4702L18.8032 18.4857C18.532 18.5697 18.2463 18.5963 17.9642 18.5638C17.6498 18.5342 17.3394 18.4709 17.0383 18.3752C16.884 18.3266 16.7286 18.2746 16.5793 18.2145C16.5021 18.1883 16.4293 18.1558 16.3548 18.1252L16.247 18.0756L16.1014 18.0125C15.8786 17.9147 15.6364 17.8693 15.3933 17.8799C15.2577 17.8862 15.1257 17.9254 15.0088 17.9942C14.8918 18.0631 14.7934 18.1594 14.7222 18.2749C14.7018 18.3133 14.6924 18.3566 14.695 18.4001C14.6976 18.4435 14.7122 18.4853 14.7371 18.521C14.7619 18.5567 14.7961 18.5848 14.836 18.6023C14.8758 18.6198 14.9197 18.626 14.9628 18.6202L15.0252 18.6118C15.1383 18.5971 15.2533 18.6149 15.3567 18.6632C15.472 18.7095 15.5823 18.7677 15.6856 18.8367C15.7192 18.8592 15.738 18.8763 15.7796 18.9038L15.9111 18.9833C15.9997 19.0327 16.088 19.084 16.1796 19.1269C16.361 19.2129 16.548 19.2866 16.7393 19.3474C17.1312 19.4726 17.5412 19.5317 17.9525 19.5223C18.4043 19.5213 18.8427 19.3683 19.1971 19.088C19.2523 19.0411 19.292 18.9787 19.3113 18.909C19.3306 18.8392 19.3284 18.7653 19.3052 18.6967Z" fill="#1C1C1C"/>
<path d="M15.1502 15.3122C15.5922 15.2726 16.0361 15.2592 16.4797 15.2723C17.3392 15.2599 18.1983 15.3167 19.0486 15.4421L19.0654 15.4454C19.1609 15.4636 19.2597 15.4462 19.3434 15.3967C19.427 15.3471 19.4896 15.2687 19.5196 15.1762C19.5495 15.0837 19.5446 14.9835 19.5058 14.8943C19.467 14.8052 19.3971 14.7333 19.309 14.692C18.8517 14.4895 18.3642 14.3636 17.866 14.3192C17.3867 14.2689 16.9032 14.2752 16.4254 14.338C15.9523 14.4017 15.4837 14.4942 15.022 14.6152C14.5496 14.7287 14.0938 14.9023 13.6655 15.1317C13.616 15.16 13.5786 15.2056 13.5607 15.2598C13.5427 15.314 13.5453 15.3729 13.568 15.4253C13.5907 15.4776 13.632 15.5198 13.6839 15.5436C13.7357 15.5675 13.7946 15.5713 13.8491 15.5545L13.8639 15.5501C14.2834 15.4271 14.7144 15.3473 15.1502 15.3122Z" fill="#1C1C1C"/>
<path d="M38.3661 42.0023C37.8363 40.6149 37.0001 39.365 35.9197 38.3461C34.9129 37.4138 33.0894 36.7705 31.3991 36.2104C31.5997 35.2314 31.9034 34.2764 32.3051 33.3613C32.4431 33.0404 32.661 32.7603 32.938 32.5476C33.828 31.8492 34.2763 31.0465 34.2619 29.4018C34.2576 28.8669 33.5753 24.849 32.1112 24.5781C31.8627 24.5309 31.6057 24.5619 31.3756 24.6667C31.3467 24.5852 31.3202 24.5077 31.2927 24.4285C32.8458 24.1345 34.3129 22.4865 34.5636 20.9851C34.6678 20.5126 34.6643 20.0227 34.5535 19.5517C34.4428 19.0807 34.2275 18.6407 33.9236 18.2642C34.5988 15.009 34.9042 10.5122 33.5998 8.13696C30.9994 3.40592 26.5553 0.465882 22.0001 0.463868C17.4449 0.461855 13.0008 3.40592 10.4013 8.13696C9.09692 10.5112 9.4023 15.0104 10.0775 18.2642C9.77365 18.6407 9.55837 19.0807 9.4476 19.5517C9.33682 20.0227 9.33338 20.5126 9.43754 20.9851C9.68654 22.4865 11.1554 24.1345 12.7085 24.4285C12.6809 24.5077 12.6541 24.5852 12.6256 24.6667C12.3957 24.5616 12.1389 24.5307 11.8906 24.5781C10.4258 24.849 9.74292 28.8669 9.73923 29.4018C9.7248 31.0462 10.1731 31.8495 11.0638 32.5479C11.3412 32.7603 11.5595 33.0404 11.6977 33.3613C12.0998 34.2757 12.4036 35.2302 12.6038 36.2088C10.9181 36.7652 9.09558 37.4054 8.08246 38.3461C7.00208 39.365 6.16591 40.6148 5.6364 42.0023C5.58947 42.1251 5.5925 42.2615 5.64485 42.3822C5.6972 42.5028 5.7947 42.5982 5.91649 42.6479C6.03828 42.6976 6.17468 42.6977 6.2965 42.648C6.41832 42.5984 6.51589 42.5031 6.56831 42.3825C7.04376 41.1317 7.79534 40.0043 8.76705 39.0844C9.55332 38.3545 11.1057 37.7732 12.5366 37.292C12.1873 38.433 11.0859 40.9992 10.647 41.9882C10.5938 42.11 10.591 42.248 10.6392 42.3719C10.6873 42.4958 10.7826 42.5957 10.9041 42.6496C11.0257 42.7035 11.1636 42.7072 11.2878 42.6598C11.412 42.6124 11.5125 42.5178 11.5671 42.3966C11.6403 42.2315 13.3612 38.3474 13.6092 37.1796C13.9179 35.7225 12.4682 32.5821 12.2403 32.1002C11.8509 30.9117 11.8746 29.6265 12.3074 28.4531L12.5907 27.693C12.9716 26.6722 13.4028 25.5151 13.7192 24.5922C13.736 24.5389 13.7688 24.492 13.8132 24.458C13.8565 24.4299 13.9062 24.4129 13.9577 24.4088C14.0092 24.4046 14.0609 24.4133 14.1082 24.4342C14.1514 24.4546 14.1877 24.4872 14.2126 24.528C14.2376 24.5688 14.25 24.6159 14.2484 24.6637C14.2544 24.7841 14.2523 24.9047 14.2421 25.0248C14.1272 26.2852 13.9433 27.5383 13.6914 28.7786C13.5038 29.6199 14.1981 30.4696 14.8696 31.2911C15.084 31.5529 15.2861 31.8006 15.4371 32.022C17.0734 34.4308 16.4633 35.7953 16.0596 36.6977L15.9817 36.8742C15.6324 37.6796 14.7565 41.6358 14.6579 42.0845C14.6432 42.1492 14.6415 42.2162 14.6528 42.2816C14.6642 42.347 14.6883 42.4095 14.7239 42.4655C14.7595 42.5216 14.8058 42.57 14.8602 42.6081C14.9145 42.6461 14.9759 42.673 15.0407 42.6873C15.1056 42.7015 15.1726 42.7028 15.2379 42.6911C15.3032 42.6793 15.3656 42.6548 15.4214 42.6188C15.4772 42.5829 15.5253 42.5363 15.563 42.4817C15.6007 42.427 15.6273 42.3655 15.6411 42.3006C16.0203 40.578 16.67 37.8172 16.9053 37.2746L16.9784 37.1091C17.2774 36.5051 17.4578 35.8492 17.5096 35.1772C18.9255 33.9855 19.1459 32.3613 19.2271 31.1502C20.0016 31.4995 20.8135 31.759 21.647 31.9237C21.761 31.9512 21.8775 31.9669 21.9947 31.9704C22.1264 31.966 22.2574 31.9486 22.3857 31.9183C23.2091 31.7552 24.0112 31.4985 24.7763 31.1532C24.8579 32.3633 25.0784 33.9896 26.4949 35.1802C26.5472 35.8506 26.7274 36.5048 27.0257 37.1075L27.0989 37.2729C27.3338 37.8155 27.9835 40.576 28.363 42.2989C28.3769 42.3638 28.4034 42.4254 28.4411 42.48C28.4788 42.5346 28.527 42.5812 28.5828 42.6172C28.6386 42.6531 28.7009 42.6777 28.7663 42.6894C28.8316 42.7012 28.8986 42.6999 28.9634 42.6856C29.0282 42.6714 29.0896 42.6444 29.144 42.6064C29.1984 42.5683 29.2447 42.5199 29.2803 42.4639C29.3159 42.4078 29.34 42.3453 29.3513 42.2799C29.3627 42.2145 29.361 42.1475 29.3463 42.0828C29.2476 41.6341 28.3731 37.6783 28.0224 36.8725L27.9446 36.696C27.5419 35.7936 26.9308 34.4292 28.5671 32.0204C28.7181 31.7989 28.9201 31.5505 29.1346 31.2895C29.8057 30.468 30.5004 29.6183 30.3128 28.7766C30.0601 27.5367 29.8756 26.2839 29.7601 25.0238C29.7487 24.8938 29.7476 24.7631 29.7567 24.6328C29.7584 24.59 29.7722 24.5486 29.7965 24.5133C29.8208 24.478 29.8546 24.4504 29.894 24.4335C29.9413 24.4127 29.993 24.4039 30.0445 24.4081C30.096 24.4123 30.1456 24.4292 30.189 24.4573C30.2335 24.4911 30.2662 24.5381 30.2826 24.5916C30.6007 25.5148 31.0306 26.6722 31.4115 27.693L31.6947 28.4531C32.1276 29.6265 32.1512 30.9117 31.7618 32.1002C31.5333 32.5821 30.0839 35.7225 30.393 37.1796C30.641 38.3474 32.3618 42.2315 32.435 42.3966C32.4897 42.5178 32.5901 42.6124 32.7143 42.6598C32.8386 42.7072 32.9765 42.7035 33.098 42.6496C33.2196 42.5957 33.3148 42.4958 33.363 42.3719C33.4112 42.248 33.4084 42.11 33.3552 41.9882C32.9166 40.9999 31.8165 38.438 31.4665 37.2947C32.9431 37.7914 34.4488 38.3575 35.2344 39.0847C36.2062 40.0044 36.9577 41.1317 37.4328 42.3825C37.4707 42.4751 37.5352 42.5544 37.6183 42.6101C37.7014 42.6659 37.7992 42.6957 37.8993 42.6956C37.9643 42.6957 38.0287 42.683 38.0889 42.6583C38.1502 42.6335 38.206 42.5968 38.2531 42.5504C38.3002 42.5039 38.3377 42.4487 38.3635 42.3877C38.3892 42.3268 38.4027 42.2614 38.4031 42.1953C38.4036 42.1291 38.391 42.0635 38.3661 42.0023ZM11.6453 27.341L11.3621 28.1031C11.0313 29.0003 10.9013 29.9591 10.9812 30.9119C10.794 30.4346 10.7138 29.9219 10.7463 29.4102C10.7537 28.4944 11.5829 25.7356 12.0745 25.5678C12.1113 25.5608 12.1491 25.5631 12.1848 25.5744C12.2204 25.5857 12.2526 25.6057 12.2786 25.6325C12.0698 26.2024 11.8504 26.7913 11.6453 27.341ZM33.5696 20.8206C33.3938 21.8804 32.2944 23.1435 31.2266 23.4164C31.4349 22.634 31.5918 21.8389 31.6964 21.0361C31.7415 20.9237 31.8219 20.8289 31.9254 20.766C32.0289 20.7031 32.15 20.6754 32.2706 20.6871C32.3366 20.6938 32.4032 20.6875 32.4668 20.6684C32.5303 20.6493 32.5894 20.6178 32.6408 20.5758C32.6921 20.5338 32.7346 20.482 32.7659 20.4235C32.7971 20.365 32.8165 20.3008 32.8229 20.2348C32.8293 20.1688 32.8226 20.1021 32.8031 20.0387C32.7837 19.9753 32.7519 19.9163 32.7095 19.8652C32.6672 19.8141 32.6152 19.7719 32.5565 19.741C32.4978 19.7101 32.4336 19.691 32.3675 19.685C32.1875 19.6679 32.0058 19.6821 31.8306 19.727C31.8635 19.2795 31.8838 18.8218 31.8914 18.3538C32.3637 18.3667 32.8126 18.5626 33.1434 18.9001C33.3561 19.1666 33.505 19.4782 33.5789 19.811C33.6528 20.1439 33.6496 20.4892 33.5696 20.8206ZM11.2832 8.62188C13.6696 4.27944 17.8761 1.47229 22.0001 1.47062C26.124 1.46894 30.3309 4.27944 32.7172 8.62188C33.7676 10.5347 33.6391 14.3879 33.0273 17.6101C32.6558 17.4491 32.2574 17.3594 31.8528 17.3457C31.5306 12.9485 30.9098 9.51989 27.3083 8.36314C27.093 8.29577 26.9017 8.16758 26.7576 7.994C25.2066 6.10132 22.8367 5.12276 20.7198 5.50029C18.8617 5.83218 17.4462 7.14934 16.7334 9.20914C15.9076 11.5968 14.9918 12.277 14.183 12.8767C13.1706 13.6288 12.292 14.2925 12.1343 17.3457C11.7341 17.3604 11.3403 17.4497 10.9728 17.6088C10.3624 14.3875 10.2325 10.534 11.2832 8.62188ZM10.4305 20.8206C10.3504 20.4893 10.347 20.144 10.4206 19.8112C10.4942 19.4783 10.6429 19.1667 10.8554 18.9001C11.1931 18.5566 11.6523 18.3598 12.1339 18.3521C12.1423 18.8219 12.1618 19.2837 12.195 19.7344C12.0113 19.6838 11.8199 19.6671 11.6302 19.685C11.5642 19.691 11.4999 19.7101 11.4412 19.741C11.3826 19.7719 11.3306 19.8141 11.2882 19.8652C11.2459 19.9163 11.2141 19.9753 11.1947 20.0387C11.1752 20.1021 11.1685 20.1688 11.1749 20.2348C11.1813 20.3008 11.2007 20.365 11.2319 20.4235C11.2632 20.482 11.3057 20.5338 11.357 20.5758C11.4083 20.6178 11.4675 20.6493 11.531 20.6684C11.5945 20.6875 11.6612 20.6938 11.7272 20.6871C11.8249 20.678 12.1172 20.6535 12.3376 21.1015C12.4428 21.8847 12.5982 22.6604 12.8028 23.4237C11.7245 23.1687 10.6084 21.8911 10.4305 20.8206ZM18.2415 30.7505C18.1872 31.6787 18.1137 32.8791 17.3858 33.852C17.162 32.9918 16.7828 32.1798 16.267 31.4559C16.0918 31.1975 15.8757 30.9331 15.6468 30.6532C15.2008 30.1079 14.5904 29.3615 14.6716 28.9974C14.7293 28.7397 14.8102 28.3045 14.8938 27.8034C15.1031 28.0678 15.3291 28.3185 15.5703 28.5541C16.374 29.358 17.2734 30.06 18.2483 30.6445C18.2466 30.681 18.2439 30.7129 18.2415 30.7505ZM28.3526 30.6532C28.1238 30.9331 27.9077 31.1975 27.7325 31.4559C27.2171 32.1791 26.8382 32.9903 26.6143 33.8496C25.8875 32.8764 25.8123 31.6787 25.7576 30.7519C25.7556 30.7143 25.7529 30.6821 25.7509 30.6455C26.7258 30.0598 27.6253 29.357 28.4295 28.5528C28.6706 28.3168 28.8965 28.0657 29.1057 27.8011C29.1893 28.3024 29.2705 28.738 29.3282 28.9958C29.4094 29.3615 28.7986 30.1079 28.3526 30.6532ZM29.4836 23.5137C29.2828 23.6027 29.1095 23.7437 28.9813 23.922C28.8531 24.1003 28.7748 24.3095 28.7543 24.5281C28.7543 24.5281 28.7406 24.8667 28.7543 25.0862C28.7758 25.4356 28.8262 25.8886 28.8886 26.3658C28.5622 26.8992 28.1721 27.391 27.7271 27.8303C26.3848 29.1313 24.7837 30.4075 22.187 30.9304C22.0625 30.9552 21.9343 30.9552 21.8098 30.9304C19.2131 30.4075 17.6127 29.1313 16.2697 27.8303C15.8253 27.3909 15.4358 26.8993 15.1099 26.3661C15.1733 25.8889 15.2233 25.4366 15.2441 25.0869C15.2577 24.917 15.2591 24.7463 15.2485 24.5761C15.2485 24.5731 15.2445 24.5315 15.2441 24.5288C15.224 24.3102 15.1459 24.101 15.0181 23.9226C14.8902 23.7441 14.7171 23.603 14.5166 23.5137C14.3067 23.4201 14.0761 23.3827 13.8474 23.4053C13.3511 21.5973 13.1115 19.7285 13.1357 17.8537C13.1357 17.8497 13.1357 17.8457 13.1357 17.8417C13.2259 14.9979 13.8454 14.3858 14.785 13.6858C15.6636 13.0331 16.7576 12.2207 17.6855 9.53902C18.4392 7.36042 19.848 6.67986 20.897 6.49261C22.6612 6.17615 24.6555 7.01779 25.9794 8.63362C26.2466 8.9565 26.6013 9.19537 27.0009 9.32156C29.8416 10.2343 30.537 12.9123 30.8819 17.8789V17.8967C30.8819 17.8967 30.8839 17.9061 30.8846 17.9111C30.887 17.9447 30.8896 17.9782 30.892 18.0118C30.9038 19.8362 30.6644 21.6536 30.1806 23.4127C29.9434 23.3825 29.7024 23.4174 29.4836 23.5137ZM31.7209 25.6319C31.746 25.605 31.7774 25.5849 31.8123 25.5731C31.8471 25.5614 31.8843 25.5586 31.9206 25.5648C32.4165 25.7325 33.2458 28.4924 33.2532 29.4082C33.2851 29.9187 33.2049 30.43 33.0182 30.9062C33.0974 29.9553 32.9676 28.9986 32.638 28.1031L32.3545 27.341C32.1498 26.7913 31.9303 26.2024 31.7219 25.6325L31.7209 25.6319Z" fill="#1C1C1C"/>
<path d="M14.5921 21.7489C14.4738 21.7198 14.3541 21.6974 14.2333 21.6817C14.1889 21.6744 14.1435 21.6761 14.0997 21.6867C14.0559 21.6972 14.0147 21.7165 13.9786 21.7434C13.9424 21.7702 13.9121 21.804 13.8892 21.8429C13.8664 21.8817 13.8517 21.9247 13.8458 21.9693C13.84 22.014 13.8432 22.0594 13.8553 22.1027C13.8673 22.1461 13.888 22.1866 13.9161 22.2219C13.9441 22.2571 13.979 22.2863 14.0185 22.3078C14.0581 22.3293 14.1016 22.3425 14.1464 22.3469C14.2425 22.3597 14.3378 22.3778 14.432 22.4009C14.4582 22.4074 14.4852 22.4107 14.5122 22.4106C14.5942 22.4105 14.6733 22.3804 14.7346 22.326C14.7959 22.2716 14.8352 22.1967 14.845 22.1153C14.8548 22.0339 14.8345 21.9517 14.7879 21.8843C14.7413 21.8168 14.6717 21.7685 14.5921 21.7489Z" fill="#1C1C1C"/>
<path d="M17.1719 25.1181C17.1279 25.1203 17.0847 25.1312 17.0449 25.1501C17.0051 25.1689 16.9693 25.1955 16.9398 25.2282C16.9102 25.2609 16.8873 25.2991 16.8725 25.3406C16.8577 25.3821 16.8512 25.4261 16.8535 25.4702C16.8561 25.5229 16.8578 25.5759 16.8575 25.6306C16.8575 25.6759 16.8575 25.7215 16.8545 25.7648C16.8524 25.8088 16.8591 25.8528 16.8741 25.8943C16.889 25.9357 16.912 25.9738 16.9417 26.0064C16.9714 26.039 17.0072 26.0654 17.0471 26.0841C17.087 26.1028 17.1302 26.1135 17.1743 26.1155H17.19C17.2764 26.1156 17.3595 26.0824 17.422 26.0227C17.4845 25.9631 17.5216 25.8816 17.5256 25.7953C17.5283 25.74 17.5293 25.6846 17.5293 25.6302C17.5293 25.5651 17.5293 25.5 17.5246 25.4346C17.5197 25.3459 17.4798 25.2628 17.4137 25.2035C17.3476 25.1442 17.2606 25.1135 17.1719 25.1181Z" fill="#1C1C1C"/>
<path d="M15.8882 22.3694C15.853 22.3429 15.8129 22.3237 15.7702 22.3127C15.7275 22.3018 15.6831 22.2994 15.6394 22.3056C15.5958 22.3119 15.5538 22.3266 15.5159 22.3491C15.478 22.3715 15.4449 22.4012 15.4184 22.4365C15.392 22.4717 15.3728 22.5119 15.3618 22.5545C15.3509 22.5972 15.3485 22.6417 15.3547 22.6853C15.3609 22.7289 15.3757 22.7709 15.3981 22.8088C15.4206 22.8467 15.4503 22.8799 15.4856 22.9063C15.5641 22.9649 15.6404 23.0279 15.7144 23.0952C15.7805 23.1549 15.8675 23.186 15.9564 23.1815C16.0454 23.1771 16.1289 23.1374 16.1886 23.0714C16.2483 23.0054 16.2794 22.9183 16.2749 22.8294C16.2704 22.7405 16.2308 22.6569 16.1648 22.5972C16.0762 22.5163 15.9832 22.4398 15.8882 22.3694Z" fill="#1C1C1C"/>
<path d="M16.5823 24.3143C16.6173 24.3964 16.6834 24.4612 16.7662 24.4944C16.8489 24.5277 16.9415 24.5268 17.0236 24.4918C17.1056 24.4568 17.1704 24.3907 17.2037 24.3079C17.237 24.2252 17.2361 24.1326 17.2011 24.0505C17.1548 23.9421 17.1034 23.8354 17.0565 23.7485C17.0511 23.7371 17.0397 23.7149 17.033 23.7045C16.9878 23.6304 16.9154 23.5769 16.8313 23.5556C16.7471 23.5342 16.658 23.5468 16.5829 23.5904C16.507 23.6349 16.4511 23.707 16.4272 23.7917C16.4032 23.8765 16.413 23.9672 16.4544 24.0448C16.5004 24.1327 16.5437 24.223 16.5823 24.3143Z" fill="#1C1C1C"/>
<path d="M17.0218 26.7455C16.9824 26.7259 16.9394 26.7143 16.8954 26.7112C16.8514 26.7082 16.8073 26.7139 16.7655 26.728C16.7237 26.742 16.6851 26.7642 16.6518 26.7932C16.6186 26.8221 16.5914 26.8574 16.5718 26.8969C16.5289 26.9833 16.481 27.0672 16.4285 27.1482C16.4039 27.1852 16.3869 27.2267 16.3784 27.2703C16.37 27.3139 16.3703 27.3587 16.3793 27.4022C16.3883 27.4457 16.4058 27.487 16.4309 27.5236C16.456 27.5603 16.4881 27.5916 16.5253 27.6157C16.5626 27.6399 16.6043 27.6564 16.648 27.6643C16.6917 27.6723 16.7365 27.6715 16.7799 27.6619C16.8232 27.6524 16.8643 27.6344 16.9006 27.6089C16.937 27.5834 16.9679 27.5509 16.9916 27.5134C17.0582 27.4109 17.1187 27.3047 17.1728 27.1952C17.2124 27.1156 17.2187 27.0234 17.1904 26.9391C17.1621 26.8548 17.1015 26.7852 17.0218 26.7455Z" fill="#1C1C1C"/>
<path d="M28.1412 22.3695C28.0462 22.4407 27.9537 22.5167 27.8637 22.5977C27.7977 22.6574 27.7581 22.7409 27.7536 22.8299C27.7491 22.9188 27.7802 23.0059 27.8399 23.0719C27.8996 23.1379 27.9831 23.1775 28.072 23.182C28.161 23.1865 28.248 23.1554 28.3141 23.0957C28.3883 23.0286 28.4647 22.9656 28.5433 22.9068C28.5785 22.8803 28.6082 22.8472 28.6307 22.8093C28.6531 22.7714 28.6679 22.7294 28.6741 22.6858C28.6804 22.6422 28.6779 22.5977 28.667 22.555C28.6561 22.5123 28.6368 22.4722 28.6104 22.437C28.5839 22.4017 28.5508 22.372 28.5129 22.3496C28.475 22.3271 28.433 22.3123 28.3894 22.3061C28.3458 22.2999 28.3013 22.3023 28.2586 22.3132C28.2159 22.3242 28.1758 22.3434 28.1406 22.3699L28.1412 22.3695Z" fill="#1C1C1C"/>
<path d="M29.7947 21.6815C29.674 21.6971 29.5544 21.7195 29.4363 21.7486C29.3567 21.7682 29.287 21.8162 29.2404 21.8836C29.1938 21.9511 29.1735 22.0332 29.1833 22.1145C29.1931 22.1959 29.2323 22.2709 29.2936 22.3253C29.3548 22.3797 29.4339 22.4099 29.5158 22.4101C29.5428 22.4101 29.5698 22.4068 29.596 22.4003C29.6903 22.3772 29.7857 22.3592 29.8819 22.3463C29.9267 22.3419 29.9701 22.3285 30.0096 22.307C30.049 22.2854 30.0838 22.2562 30.1118 22.221C30.1397 22.1858 30.1603 22.1453 30.1723 22.1019C30.1843 22.0586 30.1875 22.0133 30.1816 21.9687C30.1758 21.9241 30.161 21.8811 30.1383 21.8424C30.1155 21.8036 30.0852 21.7698 30.0491 21.743C30.013 21.7161 29.9718 21.6969 29.9281 21.6862C29.8844 21.6756 29.839 21.6742 29.7947 21.6815Z" fill="#1C1C1C"/>
<path d="M27.0048 24.4912C27.0465 24.509 27.0913 24.5182 27.1367 24.518C27.2024 24.5181 27.2667 24.4988 27.3216 24.4627C27.3765 24.4265 27.4195 24.3751 27.4454 24.3147C27.4839 24.2234 27.5271 24.1331 27.5749 24.0438C27.6164 23.9661 27.6261 23.8754 27.6021 23.7907C27.578 23.706 27.5221 23.6339 27.4461 23.5895C27.3711 23.5458 27.2819 23.5333 27.1978 23.5546C27.1136 23.5759 27.0412 23.6294 26.9961 23.7036C26.9897 23.7146 26.9779 23.7371 26.9729 23.7475C26.9256 23.8354 26.8746 23.9422 26.8279 24.0495C26.8104 24.0901 26.8011 24.1338 26.8006 24.178C26.8 24.2222 26.8082 24.2661 26.8246 24.3071C26.841 24.3481 26.8654 24.3855 26.8963 24.4171C26.9272 24.4487 26.9641 24.4739 27.0048 24.4912Z" fill="#1C1C1C"/>
<path d="M27.4558 26.8967C27.4369 26.8563 27.41 26.82 27.3768 26.7901C27.3436 26.7601 27.3048 26.7371 27.2626 26.7224C27.2204 26.7076 27.1757 26.7015 27.131 26.7043C27.0864 26.7071 27.0428 26.7187 27.0028 26.7386C26.9627 26.7585 26.9271 26.7862 26.8979 26.82C26.8687 26.8539 26.8465 26.8932 26.8328 26.9357C26.819 26.9782 26.8138 27.0231 26.8176 27.0676C26.8214 27.1122 26.834 27.1555 26.8548 27.1951C26.909 27.3045 26.9695 27.4108 27.036 27.5132C27.085 27.5867 27.1609 27.638 27.2474 27.6559C27.3338 27.6738 27.4239 27.6569 27.498 27.6089C27.5721 27.5608 27.6242 27.4855 27.6432 27.3993C27.6621 27.313 27.6463 27.2228 27.5991 27.1481C27.5468 27.067 27.4989 26.9831 27.4558 26.8967Z" fill="#1C1C1C"/>
<path d="M26.8535 26.1172C26.8976 26.1152 26.9408 26.1045 26.9807 26.0858C27.0206 26.0671 27.0564 26.0407 27.0861 26.0081C27.1158 25.9756 27.1388 25.9375 27.1537 25.896C27.1687 25.8546 27.1754 25.8106 27.1733 25.7666C27.1733 25.7216 27.1707 25.676 27.1707 25.6323C27.1707 25.5776 27.1707 25.5246 27.1743 25.4719C27.1788 25.3829 27.1477 25.2958 27.0879 25.2297C27.0281 25.1636 26.9445 25.124 26.8555 25.1196C26.7665 25.1151 26.6794 25.1462 26.6133 25.206C26.5473 25.2658 26.5076 25.3494 26.5032 25.4384C26.5002 25.5038 26.4985 25.5689 26.4988 25.634C26.4988 25.6884 26.4988 25.7437 26.5022 25.7991C26.5062 25.8854 26.5433 25.9669 26.6058 26.0265C26.6683 26.0861 26.7514 26.1194 26.8378 26.1193L26.8535 26.1172Z" fill="#1C1C1C"/>
</g>
<defs>
<clipPath id="clip0_2046_2198">
<rect width="42.9545" height="42.9545" fill="white" transform="translate(0.522705 0.0229492)"/>
</clipPath>
</defs>
</svg>
