<svg width="41" height="40" viewBox="0 0 41 40" fill="none" xmlns="http://www.w3.org/2000/svg">
<g id="face-mask 1" clip-path="url(#clip0_2046_5307)">
<path id="Vector" d="M20.5066 37.6717C13.0559 37.6717 6.52063 29.4158 6.52063 20.0039C6.52063 9.10643 11.8797 2.33643 20.5066 2.33643C29.1334 2.33643 34.4922 9.10643 34.4922 20.0039C34.4922 29.4158 27.9569 37.6717 20.5066 37.6717ZM20.5066 3.27393C10.8856 3.27393 7.45813 11.9161 7.45813 20.0039C7.45813 28.9164 13.5553 36.7342 20.5066 36.7342C27.4578 36.7342 33.5547 28.9164 33.5547 20.0039C33.5547 11.9161 30.1272 3.27393 20.5066 3.27393Z" fill="black"/>
<path id="Vector_2" d="M26.3947 22.5267C24.0903 22.5267 22.2153 21.0301 22.2153 19.1907C22.2153 17.3514 24.0903 15.8545 26.3947 15.8545C28.6991 15.8545 30.5744 17.3511 30.5744 19.1907C30.5744 21.0304 28.6994 22.5267 26.3947 22.5267ZM26.3947 16.792C24.6072 16.792 23.1528 17.8679 23.1528 19.1907C23.1528 20.5136 24.6072 21.5892 26.3947 21.5892C28.1822 21.5892 29.6369 20.5132 29.6369 19.1907C29.6369 17.8682 28.1825 16.792 26.3947 16.792Z" fill="black"/>
<path id="Vector_3" d="M14.6365 22.5267C12.3322 22.5267 10.4572 21.0301 10.4572 19.1907C10.4572 17.3514 12.3322 15.8545 14.6365 15.8545C16.9409 15.8545 18.8162 17.3511 18.8162 19.1907C18.8162 21.0304 16.9412 22.5267 14.6365 22.5267ZM14.6365 16.792C12.849 16.792 11.3947 17.8679 11.3947 19.1907C11.3947 20.5136 12.849 21.5892 14.6365 21.5892C16.424 21.5892 17.8787 20.5132 17.8787 19.1907C17.8787 17.8682 16.4243 16.792 14.6365 16.792Z" fill="black"/>
<path id="Vector_4" d="M20.5159 24.6074C19.7669 24.5785 19.054 24.2777 18.5109 23.7611C18.4642 23.7209 18.4259 23.672 18.3982 23.617C18.3705 23.5621 18.3538 23.5022 18.3492 23.4408C18.3446 23.3794 18.3521 23.3177 18.3714 23.2593C18.3906 23.2008 18.4212 23.1467 18.4614 23.1C18.5015 23.0533 18.5505 23.0151 18.6054 22.9873C18.6604 22.9596 18.7203 22.9429 18.7817 22.9383C18.843 22.9337 18.9047 22.9413 18.9632 22.9605C19.0217 22.9797 19.0758 23.0103 19.1225 23.0505C20.0728 23.8683 20.959 23.8683 21.9093 23.0505C22.0036 22.9694 22.1262 22.929 22.2501 22.9383C22.3741 22.9476 22.4893 23.0058 22.5704 23.1C22.6515 23.1942 22.6919 23.3168 22.6826 23.4408C22.6733 23.5648 22.6151 23.68 22.5209 23.7611C21.9777 24.2776 21.2649 24.5785 20.5159 24.6074Z" fill="black"/>
<path id="Vector_5" d="M20.516 32.0242C19.6779 32.0485 18.8443 31.8942 18.0704 31.5716C17.2966 31.2491 16.6002 30.7656 16.0275 30.1533C15.9274 30.0427 15.8515 29.9123 15.8049 29.7705C15.7583 29.6287 15.742 29.4788 15.757 29.3303C15.772 29.1818 15.818 29.0381 15.892 28.9085C15.966 28.779 16.0663 28.6663 16.1866 28.578L16.4053 28.4167C17.5016 27.6042 18.4488 26.9011 19.4566 26.9011C19.8145 26.8879 20.1678 26.9862 20.4675 27.1823C20.4822 27.1912 20.499 27.1959 20.5161 27.1959C20.5332 27.1959 20.55 27.1912 20.5647 27.1823C20.8644 26.9861 21.2177 26.8878 21.5756 26.9011C22.5834 26.9011 23.5303 27.6036 24.6269 28.4167L24.8456 28.578C24.9659 28.6663 25.0664 28.7789 25.1404 28.9084C25.2145 29.038 25.2605 29.1817 25.2756 29.3301C25.2906 29.4786 25.2743 29.6286 25.2278 29.7704C25.1812 29.9122 25.1054 30.0426 25.0053 30.1533C24.4325 30.7656 23.7359 31.2491 22.9619 31.5717C22.1879 31.8943 21.3541 32.0485 20.516 32.0242ZM19.4563 27.8386C18.7578 27.8386 17.8863 28.4852 16.9631 29.1695L16.7444 29.332C16.7294 29.343 16.7169 29.3571 16.7076 29.3732C16.6983 29.3894 16.6926 29.4073 16.6906 29.4258C16.6888 29.4431 16.6906 29.4606 16.696 29.4771C16.7013 29.4936 16.7102 29.5089 16.7219 29.5217C17.2072 30.0368 17.7965 30.4427 18.4508 30.7124C19.1051 30.9821 19.8093 31.1093 20.5166 31.0858C21.2238 31.1093 21.9278 30.982 22.582 30.7123C23.2362 30.4426 23.8255 30.0368 24.3106 29.5217C24.3225 29.5089 24.3314 29.4936 24.3368 29.477C24.3422 29.4604 24.3439 29.4428 24.3419 29.4255C24.34 29.4069 24.3342 29.389 24.3249 29.3728C24.3155 29.3567 24.3029 29.3427 24.2878 29.3317L24.0691 29.1689C23.1463 28.4845 22.2747 27.838 21.5763 27.838C21.4024 27.8256 21.2292 27.87 21.0828 27.9645C20.9144 28.0743 20.7176 28.1327 20.5166 28.1327C20.3155 28.1327 20.1188 28.0743 19.9503 27.9645C19.8036 27.8701 19.6302 27.8259 19.4563 27.8386Z" fill="black"/>
<path id="Vector_6" d="M21.8019 29.7949H19.23C19.1057 29.7949 18.9864 29.7455 18.8985 29.6576C18.8106 29.5697 18.7612 29.4505 18.7612 29.3262C18.7612 29.2019 18.8106 29.0826 18.8985 28.9947C18.9864 28.9068 19.1057 28.8574 19.23 28.8574H21.8019C21.9262 28.8574 22.0454 28.9068 22.1333 28.9947C22.2212 29.0826 22.2706 29.2019 22.2706 29.3262C22.2706 29.4505 22.2212 29.5697 22.1333 29.6576C22.0454 29.7455 21.9262 29.7949 21.8019 29.7949Z" fill="black"/>
<path id="Vector_7" d="M34.1435 38.0313C33.9252 38.0313 33.711 37.9726 33.5232 37.8613C33.3355 37.75 33.1811 37.5903 33.0763 37.3988L32.6816 36.6773C32.6563 36.6306 32.6181 36.5923 32.5716 36.5667L31.8494 36.1717C31.6579 36.067 31.4981 35.9127 31.3868 35.7249C31.2755 35.5372 31.2168 35.323 31.2168 35.1048C31.2168 34.8865 31.2755 34.6723 31.3868 34.4846C31.4981 34.2969 31.6579 34.1426 31.8494 34.0379L32.5713 33.6432C32.6179 33.6175 32.6563 33.579 32.6819 33.5323L33.0763 32.8107C33.1811 32.6193 33.3354 32.4595 33.5232 32.3482C33.711 32.2369 33.9252 32.1782 34.1435 32.1782C34.3617 32.1782 34.576 32.2369 34.7637 32.3482C34.9515 32.4595 35.1059 32.6193 35.2106 32.8107L35.6053 33.5323C35.6307 33.5789 35.6688 33.6173 35.7153 33.6429L36.4375 34.037C36.629 34.1417 36.7888 34.296 36.9001 34.4837C37.0114 34.6714 37.0701 34.8856 37.0701 35.1038C37.0701 35.3221 37.0114 35.5363 36.9001 35.724C36.7888 35.9117 36.629 36.066 36.4375 36.1707L35.7156 36.5654C35.669 36.5912 35.6306 36.6296 35.605 36.6763L35.2106 37.3979C35.106 37.5895 34.9517 37.7495 34.7639 37.8609C34.5761 37.9724 34.3618 38.0312 34.1435 38.0313ZM34.1435 33.1157C34.0933 33.1151 34.044 33.1283 34.0009 33.1538C33.9578 33.1794 33.9225 33.2164 33.8991 33.2607L33.5044 33.9823C33.3929 34.1865 33.2249 34.3543 33.0206 34.4657L32.2994 34.8604C32.2555 34.8844 32.2189 34.9197 32.1934 34.9627C32.1679 35.0057 32.1544 35.0548 32.1544 35.1048C32.1544 35.1548 32.1679 35.2039 32.1934 35.2469C32.2189 35.2899 32.2555 35.3252 32.2994 35.3492L33.021 35.7438C33.225 35.8553 33.3927 36.0232 33.5041 36.2273L33.8991 36.9488C33.923 36.9927 33.9584 37.0293 34.0014 37.0549C34.0444 37.0804 34.0935 37.0938 34.1435 37.0938C34.1935 37.0938 34.2425 37.0804 34.2855 37.0549C34.3285 37.0293 34.3639 36.9927 34.3878 36.9488L34.7825 36.2273C34.8942 36.0232 35.0621 35.8554 35.2663 35.7438L35.9878 35.3492C36.0316 35.3251 36.0682 35.2898 36.0936 35.2468C36.1191 35.2038 36.1325 35.1547 36.1325 35.1048C36.1325 35.0548 36.1191 35.0058 36.0936 34.9628C36.0682 34.9198 36.0316 34.8844 35.9878 34.8604L35.266 34.4657C35.0619 34.3542 34.8942 34.1864 34.7828 33.9823L34.3878 33.2607C34.3645 33.2162 34.3293 33.1791 34.2862 33.1533C34.2431 33.1276 34.1937 33.1142 34.1435 33.1148V33.1157Z" fill="black"/>
<path id="Vector_8" d="M3.87908 10.7594C3.66089 10.7593 3.44674 10.7005 3.25909 10.5891C3.07143 10.4778 2.91719 10.318 2.81252 10.1266L2.41783 9.40624C2.39226 9.35958 2.35388 9.32119 2.30721 9.29562L1.58565 8.89968C1.39409 8.79501 1.23424 8.6407 1.12288 8.45295C1.01152 8.26521 0.952759 8.05094 0.952759 7.83265C0.952759 7.61436 1.01152 7.4001 1.12288 7.21235C1.23424 7.0246 1.39409 6.87029 1.58565 6.76562L2.3069 6.37124C2.35398 6.34573 2.39263 6.30708 2.41815 6.25999L2.81252 5.53874C2.91731 5.34728 3.07167 5.18753 3.25944 5.07625C3.4472 4.96497 3.66144 4.90625 3.87971 4.90625C4.09797 4.90625 4.31221 4.96497 4.49998 5.07625C4.68774 5.18753 4.84211 5.34728 4.9469 5.53874L5.34127 6.26031C5.36672 6.30736 5.40539 6.34593 5.45252 6.37124L6.17346 6.76562C6.36502 6.87029 6.52486 7.0246 6.63622 7.21235C6.74758 7.4001 6.80634 7.61436 6.80634 7.83265C6.80634 8.05094 6.74758 8.26521 6.63622 8.45295C6.52486 8.6407 6.36502 8.79501 6.17346 8.89968L5.45221 9.29437C5.40528 9.31995 5.36667 9.35845 5.34096 9.40531L4.9469 10.1266C4.8421 10.3182 4.68765 10.478 4.49977 10.5894C4.31188 10.7007 4.09748 10.7595 3.87908 10.7594ZM3.87908 5.84374C3.82901 5.84315 3.77973 5.85637 3.73668 5.88195C3.69362 5.90753 3.65845 5.94448 3.63502 5.98874L3.24065 6.71031C3.1288 6.91418 2.96108 7.0819 2.75721 7.19374L2.03533 7.58812C1.99146 7.61213 1.95485 7.6475 1.92935 7.69052C1.90385 7.73355 1.8904 7.78264 1.8904 7.83265C1.8904 7.88266 1.90385 7.93176 1.92935 7.97478C1.95485 8.0178 1.99146 8.05317 2.03533 8.07718L2.7569 8.47187C2.96096 8.58332 3.12875 8.751 3.24033 8.95499L3.63502 9.67687C3.65898 9.72075 3.69432 9.75737 3.73732 9.78288C3.78032 9.8084 3.8294 9.82186 3.8794 9.82186C3.92939 9.82186 3.97847 9.8084 4.02147 9.78288C4.06447 9.75737 4.09981 9.72075 4.12377 9.67687L4.51815 8.95531C4.62999 8.75114 4.79796 8.58327 5.00221 8.47156L5.72346 8.07718C5.76733 8.05317 5.80394 8.0178 5.82944 7.97478C5.85494 7.93176 5.86839 7.88266 5.86839 7.83265C5.86839 7.78264 5.85494 7.73355 5.82944 7.69052C5.80394 7.6475 5.76733 7.61213 5.72346 7.58812L5.0019 7.19374C4.79797 7.08211 4.63023 6.91447 4.51846 6.71062L4.12502 5.98874C4.10142 5.94422 4.06594 5.9071 4.02253 5.88151C3.97912 5.85591 3.92947 5.84284 3.87908 5.84374Z" fill="black"/>
<path id="Vector_9" d="M7.64341 4.48418C7.46769 4.48415 7.29522 4.43684 7.14407 4.34722C6.99293 4.2576 6.86868 4.12897 6.78435 3.9748L6.51498 3.4823L6.00498 3.19543C5.85063 3.11118 5.72183 2.98692 5.63209 2.83571C5.54235 2.68449 5.495 2.51189 5.495 2.33605C5.495 2.16022 5.54235 1.98762 5.63209 1.8364C5.72183 1.68519 5.85063 1.56093 6.00498 1.47668L6.4981 1.20668L6.78466 0.696992C6.86891 0.542648 6.99317 0.413842 7.14439 0.324105C7.2956 0.234368 7.4682 0.187012 7.64404 0.187012C7.81988 0.187012 7.99247 0.234368 8.14369 0.324105C8.29491 0.413842 8.41917 0.542648 8.50341 0.696992L8.7731 1.19012L9.28248 1.47605C9.43682 1.5603 9.56563 1.68456 9.65536 1.83578C9.7451 1.987 9.79246 2.15959 9.79246 2.33543C9.79246 2.51127 9.7451 2.68386 9.65536 2.83508C9.56563 2.9863 9.43682 3.11056 9.28248 3.1948L8.78966 3.46418L8.50373 3.97387C8.41947 4.12843 8.29509 4.25742 8.14368 4.34723C7.99228 4.43704 7.81945 4.48435 7.64341 4.48418ZM7.64341 1.12605C7.63586 1.12554 7.62832 1.12736 7.62184 1.13127C7.61535 1.13518 7.61023 1.141 7.60716 1.14793L7.33716 1.64137C7.24758 1.80582 7.11265 1.94108 6.94841 2.03105L6.45529 2.30074C6.44828 2.30388 6.44242 2.30911 6.4385 2.31571C6.43458 2.32231 6.43281 2.32996 6.43341 2.33762C6.43275 2.3452 6.43451 2.35279 6.43845 2.35931C6.44238 2.36582 6.44827 2.37092 6.45529 2.37387L6.94841 2.64387C7.11294 2.73366 7.24813 2.86895 7.33779 3.03355L7.60685 3.52543C7.6156 3.54137 7.67216 3.54105 7.68029 3.52543L7.94966 3.03105C8.0396 2.86674 8.17472 2.73162 8.33904 2.64168L8.83185 2.3748C8.83878 2.37165 8.84458 2.36646 8.84849 2.35993C8.85239 2.3534 8.85422 2.34584 8.85373 2.33824C8.85438 2.33058 8.85262 2.32291 8.8487 2.3163C8.84478 2.30969 8.83889 2.30447 8.83185 2.30137L8.33904 2.03105C8.17515 1.94118 8.0403 1.80643 7.95029 1.64262L7.68029 1.14887C7.67746 1.14148 7.67238 1.13518 7.66575 1.13085C7.65913 1.12653 7.65131 1.12441 7.64341 1.1248V1.12605Z" fill="black"/>
</g>
<defs>
<clipPath id="clip0_2046_5307">
<rect width="40" height="40" fill="white" transform="translate(0.5)"/>
</clipPath>
</defs>
</svg>
